<?xml version="1.0" encoding="utf-8"?>
<!-- Generator: Adobe Illustrator 16.0.0, SVG Export Plug-In . SVG Version: 6.00 Build 0)  -->
<!DOCTYPE svg PUBLIC "-//W3C//DTD SVG 1.1//EN" "http://www.w3.org/Graphics/SVG/1.1/DTD/svg11.dtd">
<svg version="1.1" id="Capa_1" xmlns="http://www.w3.org/2000/svg" xmlns:xlink="http://www.w3.org/1999/xlink" x="0px" y="0px"
	 width="940.854px" height="178.842px" viewBox="0 0 940.854 178.842" enable-background="new 0 0 940.854 178.842"
	 xml:space="preserve">
<g>
	<g>
		<path fill="#FFFFFF" d="M606.511,108.083h-30.15c-0.911,0-1.65,0.739-1.65,1.651v7.523c0,0.911,0.739,1.65,1.65,1.65h30.15
			c0.911,0,1.65-0.739,1.65-1.65v-7.523C608.161,108.822,607.422,108.083,606.511,108.083z M578.012,111.385h11.923v4.222h-11.923
			V111.385z M604.86,115.606h-11.625v-4.222h11.625V115.606z"/>
		<path fill="#FFFFFF" d="M617.599,109.734v7.523c0,0.911,0.739,1.65,1.651,1.65h30.149c0.912,0,1.65-0.739,1.65-1.65v-7.523
			c0-0.912-0.738-1.651-1.65-1.651H619.25C618.338,108.083,617.599,108.822,617.599,109.734z M647.749,115.606h-11.624v-4.222
			h11.624V115.606z M620.9,111.385h11.923v4.222H620.9V111.385z"/>
		<path fill="#FFFFFF" d="M662.14,118.908h30.148c0.912,0,1.65-0.739,1.65-1.65v-7.523c0-0.912-0.738-1.651-1.65-1.651H662.14
			c-0.912,0-1.651,0.739-1.651,1.651v7.523C660.488,118.169,661.228,118.908,662.14,118.908z M690.638,115.606h-11.624v-4.222
			h11.624V115.606z M663.79,111.385h11.922v4.222H663.79V111.385z"/>
		<path fill="#FFFFFF" d="M604.916,151.896h-1.974v-25.464c0-0.911-0.739-1.65-1.651-1.65h-19.647c-0.912,0-1.65,0.739-1.65,1.65
			v25.464h-1.975c-0.912,0-1.65,0.739-1.65,1.65c0,0.912,0.738,1.651,1.65,1.651h3.625h19.647h3.625
			c0.912,0,1.651-0.739,1.651-1.651C606.567,152.635,605.828,151.896,604.916,151.896z M583.294,128.082h16.347v12.114h-16.347
			V128.082z M583.294,151.896v-8.398h16.347v8.398H583.294z"/>
		<path fill="#FFFFFF" d="M689.334,151.896h-1.975v-25.464c0-0.911-0.739-1.65-1.651-1.65h-19.647c-0.911,0-1.651,0.739-1.651,1.65
			v25.464h-1.974c-0.911,0-1.65,0.739-1.65,1.65c0,0.912,0.739,1.651,1.65,1.651h3.625h19.647h3.626c0.911,0,1.65-0.739,1.65-1.651
			C690.984,152.635,690.245,151.896,689.334,151.896z M667.711,128.082h16.347v12.114h-16.347V128.082z M667.711,151.896v-8.398
			h16.347v8.398H667.711z"/>
		<path fill="#FFFFFF" d="M704.432,103.898h3.654c0.562,0,1.084-0.286,1.388-0.758s0.348-1.065,0.114-1.577l-19.044-41.861
			c-0.268-0.59-0.855-0.968-1.502-0.968h-22.699v-2.691h5.09c0.91,0,1.65-0.738,1.65-1.65c0-0.911-0.74-1.65-1.65-1.65h-5.09v-8.253
			h6.847l-0.375,2.063c-0.163,0.896,0.432,1.756,1.329,1.919c0.1,0.019,0.199,0.027,0.297,0.027c0.782,0,1.477-0.559,1.622-1.355
			l1.493-8.214c0.164-0.896-0.432-1.756-1.328-1.919c-0.896-0.164-1.756,0.431-1.92,1.328l-0.518,2.85h-7.447v-2.908
			c0-0.911-0.739-1.65-1.65-1.65s-1.65,0.739-1.65,1.65v2.908h-6.883l0.41-2.259c0.163-0.896-0.432-1.756-1.328-1.919
			c-0.896-0.164-1.756,0.431-1.92,1.328l-1.493,8.214c-0.163,0.896,0.432,1.756,1.329,1.919c0.1,0.019,0.198,0.027,0.297,0.027
			c0.782,0,1.477-0.559,1.622-1.355l0.482-2.653h7.483v4.951h-4.521c-0.911,0-1.65,0.739-1.65,1.651c0,0.911,0.739,1.65,1.65,1.65
			h4.521v5.992h-77.84c-0.647,0-1.234,0.378-1.502,0.968L577.104,74.2h-72.224c-0.647,0-1.234,0.378-1.502,0.967l-12.009,26.396
			c-0.232,0.512-0.189,1.105,0.114,1.577s0.827,0.758,1.388,0.758h4.549v34.062c-1.607-3.387-4.503-5.163-8.505-5.163h-0.062
			c-5.813,0.026-9.097,3.067-10.414,6.255c-2.844,0.271-5.524,1.451-7.813,3.448c-0.688,0.599-0.758,1.642-0.159,2.329
			c0.327,0.374,0.785,0.565,1.245,0.565c0.385,0,0.771-0.134,1.084-0.407c2.002-1.746,4.373-2.679,6.854-2.694
			c0.744-0.005,1.393-0.507,1.584-1.226c0.971-3.643,4.58-4.955,7.634-4.969h0.05c3.397,0,5.309,1.604,6.193,5.197
			c0.111,0.456,0.413,0.843,0.827,1.063c0.415,0.22,0.903,0.254,1.345,0.092c0.045-0.017,0.092-0.029,0.137-0.045v33.134h-24.269
			c-0.911,0-1.65,0.739-1.65,1.65c0,0.912,0.739,1.651,1.65,1.651h25.92h8.292h51.012h144.405h25.025c0.911,0,1.65-0.739,1.65-1.651
			c0-0.911-0.739-1.65-1.65-1.65h-23.375V103.898z M509.016,158.854h47.71v3.301h-47.71V158.854z M509.016,152.251h47.71v3.301
			h-47.71V152.251z M509.016,145.648h47.71v3.301h-47.71V145.648z M556.726,142.347h-47.71v-3.772h47.71V142.347z M509.016,165.456
			h47.71v3.301h-47.71V165.456z M556.726,135.272h-47.71v-8.308h47.71V135.272z M509.016,175.54v-3.482h47.71v3.482H509.016z
			 M580.73,74.2l5.534-12.164h101.715l17.542,38.561h-2.74h-66.918h-3.627h-63.515l10.508-23.096L580.73,74.2z M621.335,174.977
			v-40.735h25.467v40.735H621.335z M701.13,175.54h-51.026v-42.949c0-0.911-0.739-1.65-1.651-1.65h-28.768
			c-0.911,0-1.65,0.739-1.65,1.65v42.949h-50.226v-71.642h66.992h66.329V175.54z M495.437,100.597l10.507-23.096h69.659
			l-10.507,23.096h-66.023H495.437z M500.723,103.898h63.784v71.642h-4.48v-50.226c0-0.911-0.738-1.65-1.65-1.65h-51.012
			c-0.911,0-1.65,0.739-1.65,1.65v50.226h-4.991V103.898z"/>
	</g>
	<g>
		<path fill="#FFFFFF" d="M725.371,175.541c-0.911,0-1.65,0.738-1.65,1.65s0.739,1.65,1.65,1.65h116.634h32.068h65.13
			c0.911,0,1.65-0.738,1.65-1.65s-0.739-1.65-1.65-1.65h-14.499v-30.486h8.436c0.912,0,1.65-0.74,1.65-1.65v-0.082
			c0-13.74-14.569-84.12-15.189-87.108c-0.159-0.767-0.834-1.316-1.616-1.316s-1.457,0.55-1.616,1.316
			c-0.62,2.988-15.19,73.368-15.19,87.135v0.055c0,0.91,0.739,1.65,1.651,1.65h8.435v30.486H885.45v-18.26
			c0.008-0.066,0.021-0.133,0.021-0.201s-0.013-0.135-0.021-0.201V80.408l18.685,0.004h0.001c0.672,0,1.276-0.406,1.529-1.029
			c0.253-0.622,0.103-1.336-0.379-1.805L833.692,8.003c-0.64-0.621-1.656-0.623-2.297-0.004l-72.104,69.544
			c-0.484,0.468-0.636,1.182-0.385,1.806c0.252,0.625,0.857,1.033,1.53,1.033l18.687,0.004v76.217
			c-0.047,0.15-0.078,0.309-0.078,0.477c0,0.166,0.031,0.324,0.078,0.477v17.984h-28.913v-29.543h8.436
			c0.911,0,1.65-0.74,1.65-1.652v-0.08c0-13.74-14.57-84.12-15.19-87.108c-0.159-0.768-0.834-1.316-1.616-1.316
			s-1.457,0.549-1.615,1.316c-0.621,2.988-15.19,73.368-15.19,87.135v0.053c0,0.912,0.738,1.652,1.65,1.652h8.436v29.543H725.371z
			 M917.984,64.796c3.735,18.445,12.698,63.715,13.454,76.956h-6.734h-3.301h-6.838h-3.302h-6.733
			C905.286,128.512,914.249,83.242,917.984,64.796z M921.403,145.055v29.318h-6.838v-29.318H921.403z M782.425,80.386v-0.023
			l3.397-3.277l46.654-44.998l46.324,45.018l3.349,3.254v0.049v75.022h-6.425v-32.473c0-0.912-0.739-1.65-1.651-1.65h-32.068
			c-0.912,0-1.65,0.738-1.65,1.65v32.473h-57.93V80.386z M782.425,158.73h57.93v16.795h-57.93V158.73z M843.655,175.541v-0.016
			V158.73v-3.301v-30.822h28.768v30.822v3.301v16.795v0.016H843.655z M882.149,175.525h-6.425V158.73h6.425V175.525z
			 M764.526,77.082l68.012-65.598l67.529,65.627l-16.529-0.004l-49.906-48.5c-0.641-0.621-1.656-0.623-2.297-0.004l-50.267,48.482
			L764.526,77.082z M743.49,65.74c3.735,18.445,12.699,63.715,13.454,76.956h-6.733h-3.302h-6.838h-3.301h-6.733
			C730.792,129.455,739.756,84.185,743.49,65.74z M746.909,145.998v29.318h-6.838v-29.318H746.909z"/>
		<path fill="#FFFFFF" d="M823.738,69.479h17.098c0.911,0,1.65-0.739,1.65-1.651V53.613c0-0.473-0.202-0.922-0.555-1.235
			l-8.518-7.556c-0.623-0.553-1.561-0.555-2.187-0.004l-8.58,7.556c-0.355,0.313-0.56,0.765-0.56,1.239v14.215
			C822.088,68.74,822.827,69.479,823.738,69.479z M825.389,54.359l6.927-6.1l6.87,6.096v11.822h-13.797V54.359z"/>
		<path fill="#FFFFFF" d="M791.812,104.418h3.631h21.165h3.632c0.911,0,1.65-0.74,1.65-1.65c0-0.912-0.739-1.652-1.65-1.652h-1.98
			v-19.1c0-0.813-0.59-1.484-1.365-1.621c-0.093-0.016-0.188-0.029-0.286-0.029h-21.165c-0.083,0-0.162,0.014-0.242,0.025
			c-0.796,0.117-1.408,0.797-1.408,1.625v19.1h-1.98c-0.912,0-1.651,0.74-1.651,1.652
			C790.16,103.678,790.899,104.418,791.812,104.418z M814.957,89.253h-17.864v-5.587h17.864V89.253z M797.093,92.555h17.864v8.561
			h-17.864V92.555z"/>
		<path fill="#FFFFFF" d="M844.96,104.418h21.166h3.632c0.911,0,1.65-0.74,1.65-1.65c0-0.912-0.739-1.652-1.65-1.652h-1.981v-19.1
			c0-0.791-0.557-1.449-1.299-1.611c-0.113-0.023-0.23-0.039-0.352-0.039H844.96c-0.115,0-0.227,0.013-0.336,0.035
			c-0.75,0.156-1.314,0.82-1.314,1.615v19.1h-1.98c-0.911,0-1.65,0.74-1.65,1.652c0,0.91,0.739,1.65,1.65,1.65H844.96z
			 M864.476,89.253h-17.864v-5.587h17.864V89.253z M846.611,92.555h17.864v8.561h-17.864V92.555z"/>
		<path fill="#FFFFFF" d="M832.209,145.918h-1.749v-23.029c0-0.912-0.739-1.65-1.65-1.65h-37.257c-0.911,0-1.65,0.738-1.65,1.65
			v23.029h-1.749c-0.911,0-1.65,0.74-1.65,1.65c0,0.912,0.739,1.652,1.65,1.652h44.056c0.911,0,1.65-0.74,1.65-1.652
			C833.859,146.658,833.12,145.918,832.209,145.918z M793.203,137.273h14.847v8.488h-14.847V137.273z M811.351,137.273h15.809v8.488
			h-15.809V137.273z M827.159,133.971h-15.809v-9.432h15.809V133.971z M793.203,124.539h14.847v9.432h-14.847V124.539z"/>
		<path fill="#FFFFFF" d="M867.864,127.369h-19.729c-0.912,0-1.65,0.738-1.65,1.65v18.393c0,0.912,0.738,1.65,1.65,1.65h19.729
			c0.911,0,1.65-0.738,1.65-1.65V129.02C869.515,128.107,868.775,127.369,867.864,127.369z M849.786,130.67h6.445v15.092h-6.445
			V130.67z M866.214,145.762h-6.682V130.67h6.682V145.762z"/>
		<path fill="#FFFFFF" d="M867.864,153.15h-19.729c-0.912,0-1.65,0.738-1.65,1.65v0.629v3.301v13.047
			c0,0.912,0.738,1.652,1.65,1.652h19.729c0.911,0,1.65-0.74,1.65-1.652V158.73v-3.301v-0.629
			C869.515,153.889,868.775,153.15,867.864,153.15z M849.786,158.73v-2.279h6.131v2.279v11.396h-6.131V158.73z M866.214,170.127
			h-6.996V158.73v-2.279h6.996v2.279V170.127z"/>
	</g>
	<g>
		<path fill="#FFFFFF" d="M290.148,142.528h-2.556v-27.589c0-0.912-0.739-1.65-1.65-1.65h-31.439c-0.911,0-1.651,0.738-1.651,1.65
			v27.589h-2.555c-0.911,0-1.65,0.739-1.65,1.65s0.739,1.65,1.65,1.65h4.206h31.439h4.206c0.91,0,1.65-0.739,1.65-1.65
			S291.059,142.528,290.148,142.528z M256.153,116.59h28.139v16.742h-28.139V116.59z M256.153,142.528v-5.896h28.139v5.896H256.153z
			"/>
		<path fill="#FFFFFF" d="M435.618,142.528h-2.554v-27.589c0-0.912-0.74-1.65-1.65-1.65h-31.441c-0.911,0-1.65,0.738-1.65,1.65
			v27.589h-2.555c-0.911,0-1.65,0.739-1.65,1.65s0.739,1.65,1.65,1.65h4.205h31.441h4.204c0.911,0,1.65-0.739,1.65-1.65
			S436.529,142.528,435.618,142.528z M401.623,116.59h28.14v16.742h-28.14V116.59z M401.623,142.528v-5.896h28.14v5.896H401.623z"/>
		<path fill="#FFFFFF" d="M347.516,77.364l-3.53-2.853c-0.109-0.088-0.229-0.154-0.352-0.211c-0.331-0.151-0.698-0.189-1.047-0.111
			c-0.261,0.059-0.511,0.178-0.724,0.363l-3.047,2.657l-4.813,4.2c-0.359,0.313-0.565,0.767-0.565,1.243v7.263v0.833v1.65v1.357
			c0,0.04,0.009,0.077,0.012,0.117c0.004,0.06,0.008,0.119,0.018,0.176c0.139,0.771,0.811,1.357,1.621,1.357h16.349
			c0.812,0,1.482-0.586,1.621-1.357c0.017-0.095,0.03-0.192,0.03-0.293V93.7v-1.301v-1.65v-0.225v-7.871
			c0-0.499-0.227-0.971-0.614-1.284L347.516,77.364z M349.786,92.106h-13.048v-1.357v-0.163v-7.182l4.821-4.206l1.43-1.247
			l1.809,1.461l4.988,4.029v7.308V92.106z"/>
		<path fill="#FFFFFF" d="M471.41,175.541h-26.174v-35.352c0.057,0.019,0.114,0.035,0.171,0.057c0.44,0.16,0.93,0.128,1.344-0.093
			c0.415-0.22,0.716-0.606,0.827-1.063c0.885-3.593,2.797-5.198,6.194-5.198h0.048c3.056,0.014,6.665,1.326,7.635,4.969
			c0.191,0.719,0.841,1.221,1.585,1.226c2.481,0.017,4.852,0.948,6.854,2.695c0.313,0.272,0.7,0.406,1.085,0.406
			c0.46,0,0.918-0.191,1.244-0.565c0.6-0.687,0.528-1.729-0.158-2.329c-2.29-1.997-4.971-3.177-7.813-3.448
			c-1.317-3.187-4.603-6.228-10.415-6.255h-0.062c-4.029,0-6.938,1.8-8.538,5.232V97.962c0-0.025-0.007-0.048-0.008-0.073
			c0.001-0.023,0.008-0.047,0.008-0.071V94.05h7.305c0.553,0,1.07-0.276,1.376-0.738s0.359-1.046,0.144-1.556l-14.803-34.965
			c-0.259-0.609-0.857-1.007-1.521-1.007h-42.821l-6.63-13.695c-0.276-0.569-0.853-0.931-1.486-0.931h-87.333
			c-0.633,0-1.209,0.361-1.485,0.931l-6.631,13.695h-42.821c-0.662,0-1.261,0.397-1.52,1.007l-14.803,34.965
			c-0.217,0.51-0.162,1.094,0.144,1.556s0.822,0.738,1.376,0.738h7.305v3.768c0,0.024,0.006,0.048,0.007,0.071
			c-0.001,0.025-0.007,0.048-0.007,0.073v38.685c-0.152,0.018-0.304,0.028-0.454,0.055c-1.498-4.008-4.55-6.11-8.911-6.11h-0.063
			c-0.854-4.568-6.104-8.818-13.414-5.745c-2.842,0.271-5.523,1.451-7.813,3.448c-0.688,0.6-0.758,1.642-0.159,2.329
			c0.327,0.374,0.784,0.565,1.244,0.565c0.386,0,0.772-0.134,1.085-0.406c2.003-1.747,4.373-2.679,6.854-2.695
			c0.744-0.005,1.495-0.194,2.182-0.481c4.875-2.041,4.417,5.042,10.037,6.287h0.049c3.398,0,5.31,1.605,6.193,5.197
			c0.112,0.456,0.414,0.843,0.828,1.063s0.903,0.253,1.344,0.093c0.328-0.121,0.662-0.209,0.998-0.27v35.564h-26.174
			c-0.912,0-1.651,0.738-1.651,1.65c0,0.911,0.739,1.65,1.651,1.65h27.824h55.782H319.8h9.196h27.746h9.275h21.785h55.782h27.825
			c0.911,0,1.65-0.739,1.65-1.65C473.061,176.279,472.321,175.541,471.41,175.541z M330.646,175.541v-40.087h24.445v40.087H330.646z
			 M358.393,175.541v-41.737c0-0.911-0.739-1.651-1.65-1.651h-27.746c-0.911,0-1.65,0.74-1.65,1.651v41.737h-5.895v-45.76
			l3.438,0.446c0.071,0.01,0.143,0.014,0.214,0.014c0.81,0,1.517-0.596,1.633-1.419c0.021-0.157,0.075-0.486,0.18-0.938
			c0.3-1.304,1.03-3.638,2.705-5.889c2.881-3.872,7.299-5.835,13.132-5.835c6.902,0,11.69,1.942,14.231,5.772
			c1.733,2.613,1.996,5.423,2.031,5.951c0.003,0.055,0.005,0.093,0.005,0.096c0.023,0.896,0.758,1.607,1.65,1.607h0.029
			c0.135-0.003,0.265-0.021,0.389-0.053h3.279v46.007H358.393z M367.531,126.232h-0.008h-1.641h-0.008h-1.646h-0.009h-2.09
			c-0.265-1.519-0.896-3.863-2.396-6.124c-3.191-4.811-8.904-7.249-16.982-7.249c-13.952,0-17.914,9.814-18.958,13.897l-2.034-0.264
			l-0.005-0.001l-1.632-0.212l-0.015-0.002l-1.618-0.21l-0.015-0.002l-2.044-0.265c0.464-2.037,1.568-5.665,4.059-9.35
			c3.389-5.012,10.001-10.986,22.262-10.986c13.717,0,20.349,6.04,23.497,11.106c2.368,3.811,3.119,7.563,3.356,9.66H367.531z
			 M367.668,175.541v-46.007h3.697c0.911,0,1.65-0.739,1.65-1.651c0-0.684-0.111-6.855-3.963-13.053
			c-3.59-5.778-11.067-12.666-26.301-12.666c-13.71,0-21.16,6.766-24.996,12.439c-3.982,5.892-4.817,11.756-4.899,12.404
			c-0.113,0.902,0.524,1.727,1.426,1.844l3.867,0.502v46.188h-18.034V99.612v-0.265l4.041-3.037l3.008-2.261l2.195-1.65l2.196-1.65
			l28.858-21.69l2.72-2.044l0,0l0,0l2.719,2.044l28.858,21.69l2.197,1.65l2.195,1.65l3.008,2.261l4.041,3.037v0.265v75.929H367.668z
			 M244.332,99.612h52.481v58.95h-52.481V99.612z M295.019,55.784l5.483-11.325h85.264l5.482,11.325l1.599,3.302l15.329,31.663
			h-27.97L347.18,65.926l-2.72-2.044l-0.335-0.252c-0.587-0.441-1.396-0.441-1.983,0l-0.334,0.251l-2.72,2.045l-33.026,24.823
			h-27.971l15.329-31.663L295.019,55.784z M389.454,99.612h52.48v58.95h-52.48V99.612z M441.935,96.311h-54.329l-3.008-2.261h26.212
			h31.125V96.311z M436.644,59.086l13.406,31.663h-38.206l-15.329-31.663H436.644z M236.218,90.749l13.405-31.663h40.13
			l-15.33,31.663H236.218z M275.458,94.05h26.212l-3.009,2.261h-54.329V94.05H275.458z M244.332,161.864h52.481v13.677h-52.481
			V161.864z M389.454,175.541v-13.677h52.48v13.677H389.454z"/>
	</g>
	<g>
		<circle fill="#FFFFFF" cx="65.967" cy="144.195" r="3.183"/>
		<path fill="#FFFFFF" d="M75.517,114.444H63.57c-0.912,0-1.651,0.739-1.651,1.65v19.336c0,0.912,0.739,1.65,1.651,1.65h11.946
			c0.912,0,1.651-0.738,1.651-1.65v-19.336C77.168,115.184,76.429,114.444,75.517,114.444z M73.866,133.78h-8.646v-16.035h8.646
			V133.78z"/>
		<path fill="#FFFFFF" d="M92.967,114.444H81.02c-0.911,0-1.651,0.739-1.651,1.65v19.336c0,0.912,0.74,1.65,1.651,1.65h11.947
			c0.911,0,1.65-0.738,1.65-1.65v-19.336C94.617,115.184,93.878,114.444,92.967,114.444z M91.315,133.78H82.67v-16.035h8.646V133.78
			z"/>
		<path fill="#FFFFFF" d="M75.517,150.208H63.57c-0.912,0-1.651,0.739-1.651,1.65v8.096v3.301v7.939c0,0.911,0.739,1.65,1.651,1.65
			h11.946c0.912,0,1.651-0.739,1.651-1.65v-7.939v-3.301v-8.096C77.168,150.947,76.429,150.208,75.517,150.208z M73.866,163.255
			v6.289h-8.646v-6.289v-3.301v-6.445h8.646v6.445V163.255z"/>
		<path fill="#FFFFFF" d="M92.967,150.208H81.02c-0.911,0-1.651,0.739-1.651,1.65v8.096v3.301v7.939c0,0.911,0.74,1.65,1.651,1.65
			h11.947c0.911,0,1.65-0.739,1.65-1.65v-7.939v-3.301v-8.096C94.617,150.947,93.878,150.208,92.967,150.208z M91.315,163.255v6.289
			H82.67v-6.289v-3.301v-6.445h8.646v6.445V163.255z"/>
		<path fill="#FFFFFF" d="M113.794,110.828v24.052v17.764h-2.438c-0.912,0-1.65,0.739-1.65,1.65c0,0.912,0.738,1.65,1.65,1.65
			h44.881c0.912,0,1.65-0.738,1.65-1.65c0-0.911-0.738-1.65-1.65-1.65h-3.772v-41.815c0-0.911-0.739-1.65-1.65-1.65h-35.37
			C114.532,109.178,113.794,109.917,113.794,110.828z M149.163,136.53v15.877h-32.068V136.53H149.163z M149.163,112.479v20.75H134.7
			v-20.75H149.163z M131.399,133.229h-14.305v-20.75h14.305V133.229z"/>
		<path fill="#FFFFFF" d="M95.636,76.479h24.838c0.582,0,1.091-0.303,1.385-0.758c0.167-0.257,0.266-0.563,0.266-0.893v-0.758v-1.65
			v-19.6c0-0.569-0.293-1.1-0.776-1.4l-12.34-7.703c-0.532-0.332-1.206-0.334-1.74-0.005l-12.497,7.703
			c-0.488,0.3-0.785,0.832-0.785,1.405v19.6v1.651v0.757c0,0.33,0.1,0.636,0.267,0.894C94.546,76.177,95.056,76.479,95.636,76.479z
			 M118.823,73.179h-9.156v-0.758v-8.793h9.156v8.793V73.179z M118.823,60.327h-9.156V48.021l9.156,5.716V60.327z M97.287,53.742
			l9.078-5.595v12.18h-9.078V53.742z M97.287,63.628h9.078v8.793v0.758h-9.078v-0.758V63.628z"/>
		<path fill="#FFFFFF" d="M214.569,175.541h-42.447v-43.999c0.052-0.029,0.105-0.054,0.154-0.09
			c2.488-1.803,5.736-1.266,8.022-0.498c0.339,0.114,0.705,0.115,1.044,0.002c0.766-0.253,1.252-0.786,1.681-1.256
			c0.229-0.252,0.445-0.488,0.689-0.671l0.06-0.047c1.228-1.006,2.906-1.3,4.604-0.809c1.802,0.522,3.201,1.812,3.742,3.449
			c0.19,0.574,0.688,1.001,1.282,1.107c0.026,0.005,2.535,0.474,3.567,2.177c0.3,0.496,0.837,0.795,1.41,0.795l0.102-0.003
			c0.612-0.037,1.153-0.411,1.405-0.97c0.817-1.819,2.343-3.203,4.295-3.896s4.101-0.575,5.891,0.326
			c0.814,0.409,1.807,0.081,2.217-0.733c0.409-0.814,0.081-1.807-0.733-2.217c-2.59-1.303-5.682-1.481-8.479-0.487
			c-1.993,0.708-3.724,1.975-4.974,3.603c-1.125-0.876-2.367-1.362-3.195-1.613c-1.044-2.248-3.083-3.976-5.61-4.708
			c-2.707-0.785-5.54-0.261-7.589,1.403c-0.48,0.363-0.835,0.754-1.122,1.068l-0.08,0.087c-3.114-0.885-6.004-0.802-8.383,0.214
			V75.722h27.117c0.701,0,1.327-0.444,1.558-1.107c0.231-0.663,0.019-1.399-0.531-1.836l-19.399-15.414V30.382h1.811
			c0.912,0,1.65-0.74,1.65-1.65V21.77c0-0.912-0.738-1.651-1.65-1.651h-27.589c-0.911,0-1.65,0.739-1.65,1.651v6.962
			c0,0.91,0.739,1.65,1.65,1.65h1.811v7.939L109.119,0.358c-0.603-0.479-1.453-0.477-2.055,0L15.954,72.78
			c-0.55,0.438-0.763,1.174-0.531,1.837c0.23,0.663,0.856,1.106,1.559,1.106h27.117v52.028c-2.368-0.992-5.234-1.067-8.321-0.189
			l-0.081-0.088c-0.287-0.314-0.642-0.704-1.123-1.067c-2.047-1.664-4.881-2.188-7.587-1.404c-2.527,0.732-4.567,2.461-5.61,4.709
			c-0.829,0.251-2.07,0.737-3.196,1.613c-1.25-1.628-2.98-2.895-4.974-3.603c-2.798-0.993-5.888-0.815-8.479,0.487
			c-0.814,0.41-1.143,1.402-0.733,2.217c0.41,0.814,1.402,1.143,2.216,0.733c1.792-0.901,3.938-1.019,5.892-0.326
			c1.952,0.692,3.478,2.076,4.295,3.896c0.252,0.559,0.793,0.933,1.405,0.97l0.101,0.003c0.574,0,1.111-0.299,1.411-0.795
			c1.033-1.703,3.542-2.172,3.56-2.176c0.602-0.103,1.098-0.528,1.289-1.108c0.542-1.638,1.941-2.927,3.743-3.449
			c1.699-0.493,3.376-0.197,4.604,0.809l0.059,0.047c0.245,0.183,0.461,0.419,0.69,0.671c0.43,0.47,0.916,1.003,1.681,1.256
			c0.34,0.113,0.707,0.112,1.044-0.002c2.286-0.768,5.535-1.305,8.022,0.498c0.029,0.021,0.063,0.035,0.094,0.055v44.034H1.65
			c-0.911,0-1.65,0.739-1.65,1.65s0.739,1.65,1.65,1.65h44.099h124.722h44.099c0.912,0,1.651-0.739,1.651-1.65
			S215.481,175.541,214.569,175.541z M47.399,175.541v-12.286h8.522v12.286H47.399z M156.898,42.538l1.651,1.312l1.65,1.312
			l14.495,11.517l2.077,1.65l2.077,1.651l15.658,12.44l-24.063,0.001l-61.32-48.723c-0.603-0.478-1.453-0.477-2.055,0L45.773,72.422
			L21.71,72.423l86.382-68.664L156.898,42.538z M156.739,23.42h24.287v3.661h-1.793h-20.702h-1.792V23.42z M160.2,30.382h17.364
			v24.359L160.2,40.944V30.382z M47.399,75.346l1.603-1.273l2.077-1.65L108.097,27.1l57.041,45.321l2.078,1.65l1.604,1.275v0.375
			v84.232h-67.982v-49.641c0-0.912-0.739-1.65-1.65-1.65H57.572c-0.911,0-1.65,0.738-1.65,1.65v49.641h-8.522v-84.23V75.346z
			 M97.536,174.754H59.223v-11.499v-3.301v-47.99h38.313v47.99v3.301V174.754z M100.838,163.255h67.982v12.286h-67.982V163.255z"/>
	</g>
</g>
</svg>
