<svg xmlns="http://www.w3.org/2000/svg" version="1.1" x="0" y="0" viewBox="0 0 364 364" xml:space="preserve"><style>.s0{fill:rgb(255, 255, 255);}</style><path d="M244.4 83.4H119.6c-19.9 0-36.1 16.2-36.1 36.1v124.8c0 19.9 16.2 36.1 36.1 36.1h124.8c19.9 0 36.1-16.2 36.1-36.1V119.6C280.6 99.7 264.4 83.4 244.4 83.4zM182 246.9c-35.8 0-64.9-29.1-64.9-64.9 0-35.8 29.1-64.9 64.9-64.9 35.8 0 64.9 29.1 64.9 64.9C246.9 217.8 217.8 246.9 182 246.9zM249 130.5c-8.5 0-15.4-6.9-15.4-15.4 0-8.5 6.9-15.4 15.4-15.4 8.5 0 15.4 6.9 15.4 15.4C264.3 123.6 257.4 130.5 249 130.5zM182 144.5c-20.7 0-37.5 16.8-37.5 37.5 0 20.7 16.8 37.5 37.5 37.5 20.7 0 37.5-16.8 37.5-37.5C219.5 161.3 202.7 144.5 182 144.5zM0 0v364h364V0H0zM308 244.4c0 35.1-28.5 63.6-63.6 63.6H119.6c-35 0-63.6-28.5-63.6-63.6V119.6c0-35 28.5-63.6 63.6-63.6h124.8c35.1 0 63.6 28.5 63.6 63.6V244.4z" fill="rgb(255, 255, 255)"/></svg>
