<?xml version="1.0" encoding="utf-8"?>
<!-- Generator: Adobe Illustrator 16.0.0, SVG Export Plug-In . SVG Version: 6.00 Build 0)  -->
<!DOCTYPE svg PUBLIC "-//W3C//DTD SVG 1.1//EN" "http://www.w3.org/Graphics/SVG/1.1/DTD/svg11.dtd">
<svg version="1.1" id="Capa_1" xmlns="http://www.w3.org/2000/svg" xmlns:xlink="http://www.w3.org/1999/xlink" x="0px" y="0px"
	 width="168.772px" height="100px" viewBox="0 0 168.772 100" enable-background="new 0 0 168.772 100" xml:space="preserve">
<g>
	<path fill="#396733" d="M31.912,98.622c-1.237-1.11-1.543-2.564-1.543-3.776c0-0.854,0.293-2.348,1.429-3.483
		c0.766-0.766,1.926-1.365,3.892-1.365c0.509,0,1.225,0.038,1.849,0.154c0.485,0.088,0.881,0.126,1.353,0.19
		c0.09,0.013,0.115,0.064,0.115,0.141c0,0.102-0.039,0.256-0.064,0.714c-0.025,0.421-0.025,1.123-0.038,1.314
		s-0.039,0.269-0.115,0.269c-0.089,0-0.102-0.09-0.102-0.269c0-0.497-0.204-1.021-0.536-1.301c-0.447-0.383-1.43-0.728-2.552-0.728
		c-1.697,0-2.488,0.497-2.934,0.932c-0.931,0.893-1.148,2.028-1.148,3.33c0,2.437,1.875,4.669,4.605,4.669
		c0.957,0,1.709-0.115,2.22-0.638c0.268-0.281,0.434-0.843,0.472-1.071c0.025-0.141,0.05-0.192,0.127-0.192
		c0.064,0,0.09,0.09,0.09,0.192c0,0.088-0.153,1.198-0.281,1.633c-0.077,0.241-0.103,0.268-0.332,0.369
		c-0.51,0.205-1.48,0.294-2.297,0.294C34.208,100,32.919,99.527,31.912,98.622"/>
	<path fill="#396733" d="M40.522,95.7c0-1.697,1.313-4.235,4.465-4.235c2.526,0,4.453,1.505,4.453,4.07
		c0,2.437-1.799,4.426-4.516,4.426C41.797,99.96,40.522,97.639,40.522,95.7 M48.24,95.853c0-2.564-1.582-3.993-3.33-3.993
		c-1.773,0-3.203,1.097-3.203,3.508c0,2.501,1.391,4.159,3.534,4.159C46.097,99.527,48.24,99.093,48.24,95.853"/>
	<path fill="#396733" d="M51.785,91.988c0-0.396,0.039-0.523,0.141-0.523c0.089,0,0.307,0.255,0.396,0.345
		c0.115,0.127,1.888,1.938,3.674,3.764c0.995,0.969,2.271,2.283,2.603,2.589l-0.14-5.307c-0.013-0.689-0.09-0.919-0.434-1.009
		c-0.218-0.037-0.409-0.05-0.498-0.05c-0.127,0-0.153-0.051-0.153-0.103c0-0.064,0.102-0.077,0.229-0.077
		c0.549,0,1.085,0.039,1.2,0.039c0.127,0,0.523-0.039,1.021-0.039c0.14,0,0.178,0.013,0.178,0.077c0,0.052-0.039,0.09-0.115,0.103
		c-0.077,0.013-0.179,0.013-0.318,0.038c-0.293,0.063-0.384,0.191-0.384,0.957l-0.025,6.404c0,0.638-0.025,0.702-0.114,0.702
		c-0.09,0-0.217-0.09-0.842-0.677c-0.052-0.025-1.825-1.786-2.935-2.87c-1.327-1.379-2.603-2.705-2.921-3.037l0.166,4.989
		c0.026,0.88,0.102,1.211,0.421,1.288c0.204,0.051,0.421,0.051,0.523,0.051c0.103,0,0.153,0.038,0.153,0.089
		c0,0.063-0.064,0.09-0.205,0.09c-0.689,0-1.148-0.038-1.237-0.038s-0.561,0.038-1.11,0.038c-0.115,0-0.191-0.013-0.191-0.09
		c0-0.051,0.05-0.089,0.178-0.089c0.089,0,0.229,0,0.396-0.051c0.281-0.09,0.344-0.435,0.344-1.365
		C51.785,92.14,51.798,94.105,51.785,91.988"/>
	<path fill="#396733" d="M61.659,99.68c-0.166-0.076-0.166-0.127-0.166-0.434c0-0.587,0.038-1.021,0.051-1.199
		c0.014-0.115,0.039-0.179,0.102-0.179c0.064,0,0.089,0.038,0.089,0.128c0,0.076,0,0.229,0.038,0.382
		c0.166,0.83,0.919,1.148,1.659,1.148c1.059,0,1.57-0.727,1.57-1.365c0-0.727-0.332-1.173-1.263-1.926l-0.511-0.396
		c-1.225-0.982-1.48-1.659-1.48-2.411c0-1.174,0.931-1.965,2.36-1.965c0.446,0,0.752,0.038,1.033,0.103
		c0.242,0.05,0.344,0.063,0.434,0.063c0.09,0,0.115,0.025,0.115,0.076s-0.051,0.497-0.051,1.237c0,0.192-0.026,0.268-0.089,0.268
		c-0.064,0-0.077-0.05-0.089-0.14c-0.013-0.115-0.039-0.383-0.153-0.6c-0.064-0.114-0.357-0.6-1.429-0.6
		c-0.765,0-1.34,0.459-1.34,1.225c0,0.601,0.307,0.97,1.365,1.773l0.294,0.229c1.327,1.021,1.67,1.697,1.67,2.603
		c0,0.459-0.191,1.275-0.969,1.813c-0.497,0.318-1.11,0.445-1.722,0.445C62.641,99.96,62.144,99.898,61.659,99.68"/>
	<path fill="#396733" d="M71.098,96.669c0,0.982,0.013,1.889,0.064,2.36c0.039,0.307,0.064,0.484,0.383,0.562
		c0.153,0.038,0.395,0.052,0.497,0.052s0.153,0.037,0.153,0.075c0,0.063-0.038,0.103-0.166,0.103c-0.651,0-1.403-0.039-1.455-0.039
		c-0.051,0-0.803,0.039-1.135,0.039c-0.141,0-0.191-0.025-0.191-0.09c0-0.038,0.038-0.088,0.14-0.088s0.178,0,0.281-0.014
		c0.242-0.038,0.28-0.191,0.332-0.625c0.051-0.459,0.051-1.379,0.051-2.335v-4.555c-0.421,0-1.097,0-1.608,0.014
		c-0.816,0.012-0.996,0.14-1.174,0.408c-0.115,0.178-0.166,0.331-0.191,0.396c-0.038,0.089-0.064,0.101-0.114,0.101
		c-0.051,0-0.064-0.051-0.064-0.114c-0.013-0.076,0.178-0.918,0.255-1.263c0.038-0.153,0.077-0.204,0.115-0.204
		c0.09,0,0.332,0.115,0.562,0.14c0.446,0.052,0.803,0.064,0.816,0.064h4.185c0.357,0,0.74-0.026,0.918-0.064
		c0.167-0.038,0.205-0.05,0.243-0.05c0.051,0,0.077,0.063,0.077,0.114c0,0.357-0.026,1.199-0.026,1.301
		c0,0.115-0.051,0.153-0.089,0.153c-0.064,0-0.089-0.051-0.089-0.153c0-0.038,0-0.05-0.013-0.178
		c-0.051-0.511-0.217-0.639-1.505-0.65c-0.485,0-0.88-0.014-1.25-0.014V96.669z"/>
	<path fill="#396733" d="M76.367,94.755c0-1.684,0-1.99-0.026-2.334c-0.025-0.345-0.115-0.536-0.51-0.612
		c-0.077-0.013-0.204-0.025-0.307-0.025c-0.088,0-0.14-0.026-0.14-0.077c0-0.052,0.038-0.09,0.153-0.09
		c0.548,0,1.327,0.038,1.352,0.038c0.115,0,0.983-0.038,1.34-0.038c0.715,0,1.493,0.064,2.093,0.485
		c0.242,0.179,0.765,0.689,0.765,1.557c0,0.701-0.345,1.595-1.352,2.411c0.931,1.147,1.697,2.093,2.347,2.769
		c0.613,0.625,0.996,0.728,1.353,0.778c0.089,0.013,0.357,0.024,0.396,0.024c0.102,0,0.14,0.039,0.14,0.09
		c0,0.063-0.051,0.09-0.229,0.09h-0.893c-0.6,0-0.88-0.038-1.161-0.153c-0.536-0.229-0.919-0.804-1.582-1.658
		c-0.498-0.613-1.008-1.302-1.225-1.569c-0.052-0.051-0.077-0.076-0.153-0.076l-1.315-0.013c-0.05,0-0.063,0.013-0.063,0.063v0.179
		c0,1.021,0,1.952,0.063,2.411c0.039,0.306,0.077,0.562,0.498,0.612c0.127,0.013,0.268,0.024,0.37,0.024
		c0.115,0,0.166,0.039,0.166,0.077c0,0.064-0.051,0.103-0.179,0.103c-0.663,0-1.378-0.038-1.429-0.038
		c-0.204,0-0.765,0.038-1.109,0.038c-0.128,0-0.179-0.026-0.179-0.103c0-0.038,0.077-0.077,0.153-0.077c0.089,0,0.179,0,0.281-0.024
		c0.217-0.039,0.293-0.179,0.332-0.485c0.063-0.459,0.051-1.505,0.051-2.461V94.755z M77.349,95.662
		c0,0.063,0.013,0.128,0.063,0.153c0.167,0.089,0.677,0.165,1.136,0.165c0.267,0,0.586-0.013,0.854-0.19
		c0.383-0.242,0.638-0.804,0.638-1.62c0-1.391-0.74-2.156-1.875-2.156c-0.319,0-0.587,0.025-0.74,0.063
		c-0.038,0.013-0.077,0.051-0.077,0.114V95.662z"/>
	<path fill="#396733" d="M85.461,96.274c0,1.557,0.293,2.221,0.778,2.653c0.549,0.485,1.161,0.587,1.684,0.587
		c0.663,0,1.264-0.178,1.747-0.739c0.511-0.588,0.626-1.558,0.626-2.667v-1.352c0-1.672,0-1.965-0.025-2.311
		c-0.025-0.369-0.064-0.562-0.472-0.624c-0.09-0.013-0.243-0.025-0.357-0.025c-0.076,0-0.128-0.038-0.128-0.076
		c0-0.078,0.063-0.104,0.179-0.104c0.549,0,1.187,0.039,1.237,0.039c0.063,0,0.612-0.039,0.971-0.039
		c0.126,0,0.178,0.025,0.178,0.09c0,0.052-0.052,0.09-0.127,0.09c-0.077,0-0.103,0-0.23,0.013c-0.356,0.037-0.408,0.268-0.434,0.637
		c-0.013,0.346-0.013,0.639-0.013,2.311v1.135c0,1.148-0.127,2.526-1.033,3.305c-0.829,0.702-1.646,0.765-2.335,0.765
		c-0.356,0-1.556,0-2.386-0.765c-0.548-0.511-0.944-1.276-0.944-2.857v-1.582c0-1.685,0-1.978-0.039-2.322
		c-0.012-0.345-0.076-0.562-0.472-0.612c-0.076-0.013-0.23-0.025-0.332-0.025c-0.089,0-0.14-0.038-0.14-0.076
		c0-0.078,0.051-0.104,0.191-0.104c0.548,0,1.237,0.039,1.327,0.039c0.102,0,0.854-0.039,1.2-0.039c0.14,0,0.178,0.025,0.178,0.09
		c0,0.063-0.09,0.09-0.152,0.09c-0.077,0-0.179,0.013-0.282,0.025c-0.305,0.037-0.356,0.255-0.382,0.612
		c-0.013,0.345-0.013,0.638-0.013,2.322V96.274z"/>
	<path fill="#396733" d="M94.416,98.8c-1.084-0.944-1.364-2.194-1.364-3.253c0-0.716,0.28-1.979,1.288-2.947
		c0.689-0.664,1.723-1.136,3.432-1.136c0.587,0,1.06,0.051,1.685,0.14c0.408,0.064,0.816,0.128,1.123,0.142
		c0.102,0,0.114,0.063,0.114,0.126c0,0.104-0.038,0.218-0.064,0.626c-0.013,0.357-0.013,1.021-0.025,1.174
		c-0.013,0.179-0.037,0.242-0.102,0.242c-0.089,0-0.103-0.076-0.103-0.242c0-0.37-0.178-0.867-0.497-1.11
		c-0.384-0.331-1.276-0.65-2.259-0.65c-1.416,0-2.066,0.396-2.449,0.739c-0.829,0.754-1.021,1.672-1.021,2.795
		c0,2.118,1.723,3.98,3.969,3.98c0.866,0,1.505-0.089,1.951-0.523c0.23-0.242,0.357-0.562,0.421-0.918
		c0.026-0.128,0.064-0.192,0.141-0.192c0.063,0,0.063,0.09,0.063,0.18c0,0.102-0.166,1.136-0.255,1.415
		c-0.076,0.205-0.115,0.244-0.293,0.319c-0.447,0.192-1.302,0.256-2.017,0.256C96.47,99.961,95.322,99.578,94.416,98.8"/>
	<path fill="#396733" d="M105.948,96.669c0,0.982,0.013,1.889,0.063,2.36c0.038,0.307,0.063,0.484,0.383,0.562
		c0.153,0.038,0.396,0.052,0.498,0.052c0.102,0,0.152,0.037,0.152,0.075c0,0.063-0.038,0.103-0.165,0.103
		c-0.651,0-1.403-0.039-1.455-0.039s-0.804,0.039-1.136,0.039c-0.14,0-0.19-0.025-0.19-0.09c0-0.038,0.038-0.088,0.14-0.088
		s0.179,0,0.281-0.014c0.242-0.038,0.28-0.191,0.331-0.625c0.052-0.459,0.052-1.379,0.052-2.335v-4.555
		c-0.421,0-1.098,0-1.608,0.014c-0.815,0.012-0.995,0.14-1.173,0.408c-0.115,0.178-0.166,0.331-0.191,0.396
		c-0.039,0.089-0.064,0.101-0.115,0.101s-0.063-0.051-0.063-0.114c-0.013-0.076,0.179-0.918,0.255-1.263
		c0.038-0.153,0.076-0.204,0.115-0.204c0.089,0,0.331,0.115,0.561,0.14c0.447,0.052,0.804,0.064,0.816,0.064h4.186
		c0.357,0,0.74-0.026,0.918-0.064c0.166-0.038,0.205-0.05,0.243-0.05c0.05,0,0.076,0.063,0.076,0.114
		c0,0.357-0.026,1.199-0.026,1.301c0,0.115-0.05,0.153-0.088,0.153c-0.064,0-0.09-0.051-0.09-0.153c0-0.038,0-0.05-0.013-0.178
		c-0.052-0.511-0.217-0.639-1.506-0.65c-0.485,0-0.88-0.014-1.25-0.014V96.669z"/>
	<path fill="#396733" d="M109.787,95.7c0-1.697,1.313-4.235,4.465-4.235c2.526,0,4.453,1.505,4.453,4.07
		c0,2.437-1.799,4.426-4.517,4.426C111.062,99.96,109.787,97.639,109.787,95.7 M117.505,95.853c0-2.564-1.582-3.993-3.329-3.993
		c-1.774,0-3.204,1.097-3.204,3.508c0,2.501,1.392,4.159,3.535,4.159C115.362,99.527,117.505,99.093,117.505,95.853"/>
	<path fill="#396733" d="M121.28,94.755c0-1.684,0-1.99-0.025-2.334c-0.025-0.345-0.115-0.536-0.511-0.612
		c-0.076-0.013-0.203-0.025-0.306-0.025c-0.089,0-0.141-0.026-0.141-0.077c0-0.052,0.038-0.09,0.153-0.09
		c0.549,0,1.326,0.038,1.352,0.038c0.115,0,0.983-0.038,1.34-0.038c0.715,0,1.493,0.064,2.093,0.485
		c0.242,0.179,0.766,0.689,0.766,1.557c0,0.701-0.346,1.595-1.353,2.411c0.932,1.147,1.697,2.093,2.347,2.769
		c0.613,0.625,0.996,0.728,1.353,0.778c0.09,0.013,0.358,0.024,0.396,0.024c0.102,0,0.14,0.039,0.14,0.09
		c0,0.063-0.051,0.09-0.229,0.09h-0.893c-0.6,0-0.881-0.038-1.161-0.153c-0.536-0.229-0.919-0.804-1.582-1.658
		c-0.498-0.613-1.008-1.302-1.224-1.569c-0.052-0.051-0.077-0.076-0.154-0.076l-1.314-0.013c-0.051,0-0.063,0.013-0.063,0.063v0.179
		c0,1.021,0,1.952,0.063,2.411c0.038,0.306,0.077,0.562,0.498,0.612c0.128,0.013,0.269,0.024,0.37,0.024
		c0.114,0,0.166,0.039,0.166,0.077c0,0.064-0.052,0.103-0.179,0.103c-0.664,0-1.379-0.038-1.429-0.038
		c-0.205,0-0.766,0.038-1.11,0.038c-0.127,0-0.179-0.026-0.179-0.103c0-0.038,0.077-0.077,0.153-0.077c0.089,0,0.179,0,0.28-0.024
		c0.217-0.039,0.294-0.179,0.332-0.485c0.063-0.459,0.051-1.505,0.051-2.461V94.755z M122.262,95.662
		c0,0.063,0.013,0.128,0.063,0.153c0.166,0.089,0.677,0.165,1.136,0.165c0.268,0,0.587-0.013,0.855-0.19
		c0.382-0.242,0.638-0.804,0.638-1.62c0-1.391-0.74-2.156-1.876-2.156c-0.319,0-0.587,0.025-0.74,0.063
		c-0.038,0.013-0.076,0.051-0.076,0.114V95.662z"/>
	<path fill="#396733" d="M130.694,96.708c-0.063,0-0.103,0.038-0.127,0.103l-0.562,1.595c-0.128,0.357-0.218,0.702-0.218,0.905
		c0,0.229,0.141,0.333,0.421,0.333h0.09c0.115,0,0.152,0.037,0.152,0.088c0,0.064-0.102,0.09-0.19,0.09
		c-0.28,0-0.867-0.038-1.009-0.038c-0.127,0-0.688,0.038-1.225,0.038c-0.14,0-0.203-0.025-0.203-0.09
		c0-0.051,0.051-0.088,0.152-0.088c0.063,0,0.179,0,0.256-0.014c0.548-0.052,0.765-0.472,0.981-1.008l2.553-6.724
		c0.14-0.369,0.178-0.434,0.268-0.434c0.063,0,0.114,0.051,0.255,0.407c0.179,0.422,1.913,4.874,2.59,6.469
		c0.421,1.009,0.791,1.174,0.969,1.237c0.167,0.065,0.346,0.065,0.435,0.065s0.153,0.024,0.153,0.088c0,0.064-0.052,0.09-0.191,0.09
		c-0.128,0-1.084,0-1.939-0.025c-0.242-0.013-0.319-0.025-0.319-0.09c0-0.038,0.039-0.076,0.09-0.089
		c0.051-0.025,0.127-0.09,0.051-0.28l-1.008-2.565c-0.025-0.038-0.051-0.063-0.102-0.063H130.694z M132.862,96.261
		c0.052,0,0.052-0.038,0.039-0.077l-1.008-2.818c-0.063-0.179-0.077-0.179-0.141,0l-0.956,2.818c-0.026,0.052,0,0.077,0.025,0.077
		H132.862z"/>
	<line fill="none" stroke="#396733" stroke-width="3" stroke-miterlimit="10" x1="168.128" y1="87.201" x2="0" y2="87.201"/>
	<path fill="#6E5128" d="M22.34,62.305c0,5.766,0,10.511,0.301,13.033c0.18,1.742,0.54,3.063,2.342,3.304
		c0.841,0.12,2.162,0.24,2.703,0.24c0.36,0,0.48,0.18,0.48,0.359c0,0.301-0.299,0.481-0.96,0.481c-3.303,0-7.087-0.181-7.387-0.181
		c-0.301,0-4.085,0.181-5.887,0.181c-0.66,0-0.961-0.12-0.961-0.481c0-0.18,0.121-0.359,0.481-0.359c0.54,0,1.261-0.12,1.802-0.24
		c1.202-0.24,1.501-1.562,1.742-3.304c0.301-2.522,0.301-7.268,0.301-13.033V36.9c-2.943,0.059-5.946,0.059-8.889,0.12
		c-3.724,0.06-5.166,0.48-6.126,1.922c-0.661,1.021-0.841,1.441-1.021,1.862c-0.181,0.481-0.361,0.601-0.601,0.601
		c-0.181,0-0.3-0.18-0.3-0.541c0-0.601,1.201-5.766,1.321-6.246c0.12-0.36,0.36-1.141,0.601-1.141c0.42,0,1.021,0.6,2.642,0.721
		c1.742,0.18,4.024,0.3,4.745,0.3h22.523c1.921,0,3.303-0.12,4.264-0.3c0.901-0.121,1.442-0.3,1.682-0.3
		c0.301,0,0.301,0.36,0.301,0.721c0,1.802-0.18,5.946-0.18,6.607c0,0.541-0.18,0.781-0.42,0.781c-0.3,0-0.42-0.181-0.48-1.021
		c0-0.241-0.06-0.42-0.06-0.661c-0.181-1.802-1.622-3.183-7.388-3.303c-2.523-0.061-5.045-0.061-7.568-0.12V62.305z"/>
	<path fill="#6E5128" d="M47.507,65.068c-0.3,0-0.48,0.181-0.6,0.481l-2.643,7.507c-0.601,1.682-1.021,3.304-1.021,4.264
		c0,1.082,0.661,1.563,1.982,1.563h0.42c0.541,0,0.721,0.18,0.721,0.421c0,0.3-0.481,0.42-0.901,0.42
		c-1.322,0-4.084-0.181-4.745-0.181c-0.6,0-3.243,0.181-5.766,0.181c-0.661,0-0.961-0.12-0.961-0.42
		c0-0.241,0.241-0.421,0.721-0.421c0.3,0,0.841,0,1.201-0.061c2.583-0.24,3.604-2.222,4.625-4.745l12.012-31.651
		c0.661-1.742,0.841-2.042,1.261-2.042c0.3,0,0.541,0.24,1.202,1.922c0.84,1.982,9.009,22.943,12.192,30.451
		c1.982,4.744,3.724,5.524,4.565,5.825c0.781,0.301,1.622,0.301,2.042,0.301c0.42,0,0.721,0.12,0.721,0.421
		c0,0.3-0.241,0.42-0.901,0.42c-0.601,0-5.105,0-9.129-0.12c-1.142-0.061-1.501-0.121-1.501-0.421c0-0.18,0.18-0.36,0.42-0.42
		c0.24-0.12,0.6-0.421,0.24-1.321l-4.745-12.072c-0.12-0.181-0.24-0.301-0.481-0.301H47.507z M57.717,62.965
		c0.241,0,0.241-0.18,0.181-0.36l-4.745-13.273c-0.3-0.84-0.36-0.84-0.66,0l-4.505,13.273c-0.121,0.241,0,0.36,0.12,0.36H57.717z"/>
	<path fill="#6E5128" d="M81.923,55.879c0-8.289,0-9.37-0.12-10.992c-0.121-1.562-0.601-2.522-2.283-2.883
		c-0.42-0.061-1.381-0.121-1.862-0.121c-0.12,0-0.36-0.12-0.36-0.3c0-0.36,0.301-0.48,0.841-0.48c2.583,0,5.886,0.181,6.247,0.181
		c1.26,0,4.324-0.181,6.787-0.181c6.606,0,9.009,2.163,9.851,2.883c1.141,1.021,2.642,3.363,2.642,6.727
		c0,6.667-5.525,11.532-13.033,11.532c-0.239,0-0.84,0-1.141-0.061c-0.24,0-0.54-0.12-0.54-0.36c0-0.48,0.359-0.48,1.501-0.48
		c4.745,0,8.709-3.243,8.709-8.528c0-0.782,0.18-4.384-2.583-7.268c-2.942-3.123-6.366-2.823-7.448-2.823
		c-0.779,0-1.681,0.121-2.041,0.3c-0.301,0.121-0.36,0.541-0.36,0.961v20.78c0,4.625,0,8.95,0.24,11.112
		c0.18,1.44,0.48,2.643,2.102,2.822c0.722,0.12,1.923,0.241,2.403,0.241c0.24,0,0.359,0.119,0.359,0.299
		c0,0.301-0.24,0.481-0.84,0.481c-3.123,0-6.487-0.181-6.788-0.181c-0.06,0-3.604,0.181-5.285,0.181
		c-0.541,0-0.841-0.12-0.841-0.481c0-0.18,0.121-0.299,0.42-0.299c0.42,0,1.081-0.121,1.562-0.241
		c1.081-0.18,1.381-1.382,1.561-2.822c0.301-2.162,0.301-6.487,0.301-10.991V55.879z"/>
	<path fill="#6E5128" d="M115.558,55.879c0-7.929,0-9.37-0.12-10.992s-0.48-2.522-1.741-2.763c-0.602-0.12-1.021-0.12-1.382-0.181
		c-0.421-0.06-0.66-0.18-0.66-0.42c0-0.3,0.239-0.42,0.901-0.42c1.86,0,5.284,0.181,5.465,0.181c0.24,0,3.724-0.181,5.405-0.181
		c0.601,0,0.901,0.12,0.901,0.42c0,0.241-0.181,0.36-0.661,0.42c-0.36,0.061-0.661,0.061-1.081,0.12
		c-1.741,0.24-1.921,1.142-2.042,2.883c-0.12,1.622-0.061,3.002-0.061,10.932v9.009c0,4.625-0.06,8.829,0.241,10.991
		c0.239,1.741,0.479,2.402,2.042,2.763c0.78,0.18,2.042,0.239,2.281,0.239c0.541,0.062,0.662,0.181,0.662,0.422
		c0,0.239-0.241,0.42-0.842,0.42c-3.063,0-6.547-0.181-6.847-0.181c-0.181,0-3.724,0.181-5.405,0.181
		c-0.541,0-0.961-0.12-0.961-0.42c0-0.241,0.239-0.422,0.78-0.422c0.301,0,0.961-0.06,1.442-0.18
		c1.021-0.24,1.201-1.441,1.381-2.882c0.3-2.163,0.3-6.428,0.3-10.932V55.879z"/>
	<path fill="#6E5128" d="M141.745,65.068c-0.3,0-0.48,0.181-0.6,0.481l-2.643,7.507c-0.602,1.682-1.021,3.304-1.021,4.264
		c0,1.082,0.66,1.563,1.982,1.563h0.42c0.54,0,0.721,0.18,0.721,0.421c0,0.3-0.48,0.42-0.9,0.42c-1.321,0-4.085-0.181-4.745-0.181
		c-0.602,0-3.243,0.181-5.766,0.181c-0.661,0-0.961-0.12-0.961-0.42c0-0.241,0.239-0.421,0.721-0.421c0.3,0,0.841,0,1.201-0.061
		c2.582-0.24,3.604-2.222,4.625-4.745l12.011-31.651c0.661-1.742,0.842-2.042,1.262-2.042c0.301,0,0.541,0.24,1.202,1.922
		c0.841,1.982,9.009,22.943,12.192,30.451c1.981,4.744,3.724,5.524,4.564,5.825c0.78,0.301,1.621,0.301,2.042,0.301
		c0.42,0,0.72,0.12,0.72,0.421c0,0.3-0.239,0.42-0.9,0.42c-0.601,0-5.104,0-9.129-0.12c-1.141-0.061-1.502-0.121-1.502-0.421
		c0-0.18,0.18-0.36,0.421-0.42c0.24-0.12,0.601-0.421,0.24-1.321l-4.745-12.072c-0.12-0.181-0.24-0.301-0.48-0.301H141.745z
		 M151.956,62.965c0.24,0,0.24-0.18,0.181-0.36l-4.745-13.273c-0.301-0.84-0.36-0.84-0.66,0l-4.505,13.273
		c-0.12,0.241,0,0.36,0.12,0.36H151.956z"/>
	<polygon fill="#CA611F" points="3.456,30.912 25.606,0 61.445,4.48 61.429,5.34 69.594,12.249 73.797,12.249 73.497,6.349 
		114.621,11.643 147.874,30.762 128.301,30.378 118.477,16.826 91.836,20.159 95.356,28.905 63.888,28.488 26.404,0.896 
		4.38,30.926 	"/>
	<polyline fill="#CA611F" points="63.496,4.187 68.61,3.095 68.91,9.979 63.529,5.735 63.501,4.097 	"/>
	<polygon fill="#CA611F" points="69.732,2.963 72.528,4.038 72.779,10.445 70.063,10.356 	"/>
	<polygon fill="#CA611F" points="62.741,2.381 69.195,0.976 72.936,2.075 72.869,2.884 69.058,1.843 62.675,3.174 	"/>
	<polygon fill="#CA611F" points="97.098,30.003 93.722,20.915 117.108,17.77 108.848,29.125 	"/>
</g>
</svg>
