<?xml version="1.0" encoding="utf-8"?>
<!-- Generator: Adobe Illustrator 16.0.0, SVG Export Plug-In . SVG Version: 6.00 Build 0)  -->
<!DOCTYPE svg PUBLIC "-//W3C//DTD SVG 1.1//EN" "http://www.w3.org/Graphics/SVG/1.1/DTD/svg11.dtd">
<svg version="1.1" id="Capa_1" xmlns="http://www.w3.org/2000/svg" xmlns:xlink="http://www.w3.org/1999/xlink" x="0px" y="0px"
	 width="210.145px" height="124.973px" viewBox="0 0 210.145 124.973" enable-background="new 0 0 210.145 124.973"
	 xml:space="preserve">
<g>
	<g>
		<g>
			<g>
				<polygon fill="#FFFFFF" points="0,92.67 15.804,78.135 15.804,124.973 0,124.973 				"/>
			</g>
		</g>
		<g>
			<polygon fill="#FFFFFF" points="19.144,49.219 33.957,33.734 33.957,112.053 19.144,97.515 			"/>
		</g>
		<g>
			<polygon fill="#FFFFFF" points="19.144,101.553 33.957,115.281 33.957,124.973 19.144,124.973 			"/>
		</g>
		<g>
			<polygon fill="#FFFFFF" points="37.185,86.209 90.331,34.585 90.331,124.973 37.185,124.973 			"/>
		</g>
		<g>
			<polygon fill="#FFFFFF" points="37.185,0 53.334,16.057 53.334,68.058 37.185,82.979 			"/>
		</g>
		<g>
			<polygon fill="#FFFFFF" points="55.907,16.82 70.953,32.203 70.953,49.525 56.818,63.598 			"/>
		</g>
		<g>
			<polygon fill="#FFFFFF" points="74.179,32.179 74.183,46.182 90.331,30.55 90.331,16.82 			"/>
		</g>
		<g>
			<g>
				<g>
					<polygon fill="#FFFFFF" points="210.145,92.67 194.35,78.135 194.35,124.973 210.145,124.973 					"/>
				</g>
			</g>
			<g>
				<polygon fill="#FFFFFF" points="191.007,49.219 176.199,33.734 176.199,112.053 191.007,97.515 				"/>
			</g>
			<g>
				<polygon fill="#FFFFFF" points="191.007,101.553 176.199,115.281 176.199,124.973 191.007,124.973 				"/>
			</g>
			<g>
				<polygon fill="#FFFFFF" points="172.967,86.209 119.821,34.585 119.821,124.973 172.967,124.973 				"/>
			</g>
			<g>
				<polygon fill="#FFFFFF" points="172.967,0 156.817,16.057 156.817,68.058 172.967,82.979 				"/>
			</g>
			<g>
				<polygon fill="#FFFFFF" points="154.243,16.82 139.201,32.203 139.201,49.525 153.334,63.598 				"/>
			</g>
			<g>
				<polygon fill="#FFFFFF" points="135.973,32.179 135.969,46.182 119.821,30.55 119.821,16.82 				"/>
			</g>
		</g>
	</g>
</g>
</svg>
