<?xml version="1.0" encoding="utf-8"?>
<!-- Generator: Adobe Illustrator 16.0.0, SVG Export Plug-In . SVG Version: 6.00 Build 0)  -->
<!DOCTYPE svg PUBLIC "-//W3C//DTD SVG 1.1//EN" "http://www.w3.org/Graphics/SVG/1.1/DTD/svg11.dtd">
<svg version="1.1" id="Capa_1" xmlns="http://www.w3.org/2000/svg" xmlns:xlink="http://www.w3.org/1999/xlink" x="0px" y="0px"
	 width="509.583px" height="125.627px" viewBox="0 0 509.583 125.627" enable-background="new 0 0 509.583 125.627"
	 xml:space="preserve">
<g>
	<g>
		<g>
			<path fill="#FFFFFF" d="M249.048,21.356c1.604,0,3.658-0.01,6.163-0.034c2.504-0.023,5.029-0.036,7.58-0.036
				c2.596,0,5.287-0.014,8.074-0.037c2.784-0.021,5.596-0.034,8.428-0.034c-0.143,1.652-0.271,3.176-0.39,4.569
				c-0.118,1.392-0.214,2.761-0.284,4.108c-0.068,1.345-0.117,2.702-0.141,4.071c-0.024,1.37-0.033,2.856-0.033,4.463l-2.692,0.14
				c-0.424-2.547-0.886-4.698-1.382-6.442c-0.495-1.747-1.217-3.177-2.16-4.287c-0.947-1.108-2.221-1.9-3.826-2.373
				c-1.604-0.472-3.73-0.709-6.373-0.709h-8.077v55.601c0,1.133,0.096,2.08,0.283,2.834c0.189,0.756,0.613,1.383,1.278,1.877
				c0.66,0.497,1.664,0.863,3.008,1.099c1.348,0.236,3.177,0.401,5.49,0.495l-0.143,2.551c-0.99,0-2.112-0.011-3.363-0.035
				c-1.254-0.023-2.541-0.037-3.859-0.037c-1.323,0-2.633-0.01-3.933-0.033c-1.298-0.023-2.512-0.037-3.647-0.037
				c-0.945,0-1.972,0.014-3.08,0.037c-1.111,0.023-2.232,0.033-3.366,0.033c-1.132,0-2.266,0.014-3.401,0.037
				c-1.13,0.024-2.146,0.035-3.043,0.035l-0.212-2.408c2.171-0.143,3.918-0.354,5.239-0.638c1.325-0.284,2.314-0.754,2.977-1.418
				c0.66-0.661,1.1-1.545,1.311-2.655c0.214-1.108,0.319-2.561,0.319-4.354V24.757h-7.861c-2.647,0-4.783,0.237-6.413,0.709
				c-1.629,0.472-2.939,1.265-3.931,2.373c-0.991,1.11-1.745,2.54-2.266,4.287c-0.521,1.744-0.991,3.895-1.417,6.442l-2.69-0.14
				v-4.463c0-2.125-0.036-4.154-0.107-6.091c-0.071-1.936-0.225-4.154-0.46-6.657c2.833,0,5.619,0.012,8.357,0.034
				c2.736,0.023,5.384,0.037,7.933,0.037s4.793,0.012,6.729,0.036C245.601,21.347,247.396,21.356,249.048,21.356z"/>
			<path fill="#FFFFFF" d="M324.837,64.068H301.25l-5.455,13.954c-0.942,2.691-1.415,4.391-1.415,5.1
				c0,1.229,0.577,2.078,1.736,2.551c1.156,0.472,3.221,0.778,6.196,0.92l-0.214,2.549c-1.747,0-3.705-0.022-5.877-0.07
				c-2.174-0.047-4.32-0.07-6.447-0.07c-1.745,0-3.553,0.023-5.417,0.07c-1.866,0.048-3.671,0.07-5.419,0.07l-0.142-2.406
				c1.842-0.143,3.352-0.366,4.534-0.674c1.18-0.307,2.206-0.872,3.08-1.699c0.873-0.826,1.699-1.959,2.479-3.4
				c0.778-1.439,1.687-3.365,2.726-5.772l19.62-47.953c0.567-1.417,1.169-2.656,1.806-3.718c0.639-1.063,1.193-2.206,1.664-3.435
				l4.463-0.566c0.518,2.267,1.074,4.344,1.666,6.231c0.59,1.89,1.145,3.612,1.664,5.17L338.437,77.1
				c0.708,2.079,1.346,3.709,1.913,4.889s1.227,2.088,1.982,2.728c0.754,0.636,1.712,1.073,2.868,1.31
				c1.155,0.236,2.656,0.425,4.498,0.566l-0.213,2.549c-1.984,0-4.168-0.022-6.553-0.07c-2.383-0.047-4.781-0.07-7.188-0.07
				c-1.984,0-3.994,0.023-6.021,0.07c-2.031,0.048-4.039,0.07-6.02,0.07l-0.215-2.406c2.645-0.19,4.533-0.507,5.667-0.957
				c1.132-0.449,1.698-1.286,1.698-2.515c0-0.521-0.094-1.12-0.281-1.805c-0.189-0.686-0.424-1.453-0.707-2.302L324.837,64.068z
				 M302.88,59.96h20.609l-9.277-28.049H314L302.88,59.96z"/>
			<path fill="#FFFFFF" d="M370.453,80.219c0,1.131,0.069,2.088,0.21,2.867c0.143,0.779,0.567,1.43,1.276,1.946
				c0.708,0.521,1.781,0.912,3.223,1.169c1.439,0.262,3.457,0.416,6.057,0.461l-0.143,2.551c-2.549,0-5.219-0.022-8.004-0.072
				c-2.787-0.046-5.311-0.07-7.578-0.07c-0.898,0-1.891,0.014-2.977,0.037c-1.085,0.023-2.171,0.033-3.256,0.033
				c-1.04,0-2.033,0.014-2.976,0.037c-0.944,0.024-1.747,0.035-2.409,0.035l-0.143-2.408c1.844-0.143,3.318-0.367,4.429-0.672
				c1.108-0.309,1.972-0.781,2.583-1.417c0.615-0.64,1.03-1.512,1.24-2.622c0.213-1.108,0.321-2.561,0.321-4.354V30.068
				c0-1.133-0.097-2.077-0.283-2.833c-0.19-0.754-0.579-1.382-1.169-1.876c-0.592-0.496-1.479-0.863-2.658-1.097
				c-1.179-0.236-2.762-0.402-4.744-0.497l0.141-2.549c0.754,0,1.641,0.012,2.656,0.034c1.015,0.023,2.111,0.037,3.293,0.037
				s2.385,0.012,3.613,0.036c1.227,0.024,2.408,0.034,3.541,0.034c1.698,0,3.637-0.118,5.809-0.354
				c2.17-0.235,4.32-0.353,6.445-0.353c3.352,0,6.553,0.33,9.598,0.992c3.047,0.661,5.713,1.746,8.004,3.257
				c2.289,1.512,4.12,3.506,5.489,5.986c1.369,2.479,2.054,5.513,2.054,9.1c0,3.637-0.732,6.801-2.196,9.493
				c-1.464,2.691-3.376,4.935-5.737,6.729c-2.361,1.794-5.006,3.141-7.934,4.036c-2.926,0.898-5.876,1.348-8.854,1.348
				c-1.793,0-3.506-0.119-5.136-0.355c-1.63-0.234-2.892-0.542-3.786-0.92V80.219z M370.453,56.774
				c1.084,0.33,2.238,0.579,3.471,0.743c1.227,0.165,2.596,0.248,4.105,0.248c1.844,0,3.73-0.282,5.666-0.849
				c1.938-0.567,3.697-1.523,5.277-2.87c1.582-1.345,2.895-3.127,3.934-5.347c1.037-2.221,1.556-5.005,1.556-8.358
				c0-5.43-1.476-9.445-4.425-12.041c-2.951-2.597-7.073-3.897-12.361-3.897c-1.654,0-2.949,0.094-3.896,0.283
				c-0.943,0.19-1.663,0.486-2.158,0.886c-0.498,0.401-0.815,0.933-0.958,1.594c-0.141,0.662-0.21,1.488-0.21,2.479V56.774z"/>
			<path fill="#FFFFFF" d="M410.54,86.805c1.842-0.143,3.33-0.367,4.464-0.672c1.134-0.309,2.02-0.781,2.654-1.417
				c0.639-0.64,1.073-1.512,1.311-2.622c0.235-1.108,0.354-2.561,0.354-4.354V30.068c0-1.133-0.095-2.077-0.282-2.833
				c-0.188-0.754-0.604-1.382-1.24-1.876c-0.639-0.496-1.547-0.863-2.728-1.097c-1.182-0.236-2.737-0.402-4.676-0.497l0.143-2.549
				c0.754,0,1.676,0.012,2.763,0.034c1.084,0.023,2.241,0.037,3.471,0.037c1.275,0,2.561,0.012,3.86,0.036
				c1.298,0.024,2.514,0.034,3.647,0.034c0.896,0,1.902-0.01,3.009-0.034c1.112-0.023,2.209-0.036,3.294-0.036
				c1.086,0,2.115-0.014,3.083-0.037c0.968-0.021,1.782-0.034,2.444-0.034l0.283,2.406c-1.842,0.143-3.343,0.367-4.498,0.673
				c-1.158,0.309-2.066,0.78-2.728,1.417c-0.661,0.638-1.11,1.512-1.344,2.622c-0.239,1.11-0.356,2.538-0.356,4.284v47.739
				c0,1.133,0.094,2.08,0.283,2.834c0.189,0.756,0.588,1.383,1.207,1.877c0.609,0.497,1.508,0.863,2.688,1.099
				c1.181,0.236,2.764,0.401,4.748,0.495v2.551c-0.756,0-1.701-0.011-2.833-0.035c-1.134-0.023-2.337-0.037-3.613-0.037
				c-1.229,0-2.479-0.01-3.755-0.033c-1.273-0.023-2.479-0.037-3.613-0.037c-0.943,0-1.959,0.014-3.043,0.037
				c-1.088,0.023-2.175,0.033-3.26,0.033c-1.086,0-2.113,0.014-3.079,0.037c-0.97,0.024-1.784,0.035-2.444,0.035L410.54,86.805z"/>
			<path fill="#FFFFFF" d="M484.346,64.068h-23.587l-5.453,13.954c-0.946,2.691-1.417,4.391-1.417,5.1
				c0,1.229,0.575,2.078,1.734,2.551c1.157,0.472,3.222,0.778,6.198,0.92l-0.212,2.549c-1.749,0-3.708-0.022-5.88-0.07
				c-2.174-0.047-4.32-0.07-6.445-0.07c-1.747,0-3.553,0.023-5.418,0.07c-1.866,0.048-3.67,0.07-5.419,0.07l-0.142-2.406
				c1.842-0.143,3.352-0.366,4.533-0.674c1.181-0.307,2.207-0.872,3.081-1.699c0.872-0.826,1.699-1.959,2.479-3.4
				c0.779-1.439,1.688-3.365,2.727-5.772l19.619-47.953c0.567-1.417,1.17-2.656,1.807-3.718c0.64-1.063,1.192-2.206,1.665-3.435
				l4.462-0.566c0.519,2.267,1.074,4.344,1.663,6.231c0.592,1.89,1.146,3.612,1.667,5.17L497.947,77.1
				c0.705,2.079,1.346,3.709,1.912,4.889c0.567,1.18,1.227,2.088,1.982,2.728c0.754,0.636,1.711,1.073,2.869,1.31
				c1.154,0.236,2.654,0.425,4.498,0.566l-0.213,2.549c-1.984,0-4.168-0.022-6.553-0.07c-2.384-0.047-4.781-0.07-7.188-0.07
				c-1.983,0-3.993,0.023-6.022,0.07c-2.029,0.048-4.037,0.07-6.018,0.07l-0.216-2.406c2.646-0.19,4.535-0.507,5.667-0.957
				c1.133-0.449,1.699-1.286,1.699-2.515c0-0.521-0.095-1.12-0.281-1.805c-0.189-0.686-0.425-1.453-0.709-2.302L484.346,64.068z
				 M462.387,59.96h20.611l-9.276-28.049h-0.213L462.387,59.96z"/>
		</g>
		<g>
			<path fill="#FFFFFF" stroke="#FFFFFF" stroke-width="0.9465" stroke-miterlimit="10" d="M224.431,113.654
				c0,1.42,0.176,2.756,0.531,4.008c0.356,1.25,0.891,2.338,1.609,3.262c0.719,0.926,1.617,1.658,2.697,2.198
				c1.081,0.541,2.355,0.812,3.819,0.812c0.8,0,1.565-0.111,2.298-0.334c0.732-0.222,1.379-0.584,1.943-1.088
				c0.531-0.474,0.995-1.054,1.387-1.742c0.392-0.689,0.781-1.499,1.166-2.432l0.888,0.223c-0.251,0.977-0.451,1.895-0.599,2.752
				c-0.148,0.859-0.274,1.776-0.376,2.754c-1.171,0.34-2.328,0.606-3.474,0.799c-1.148,0.191-2.3,0.288-3.453,0.288
				c-1.672,0-3.216-0.259-4.628-0.776c-1.416-0.519-2.637-1.25-3.664-2.198c-1.028-0.947-1.833-2.091-2.41-3.43
				c-0.578-1.34-0.864-2.831-0.864-4.474c0-1.895,0.346-3.549,1.042-4.962c0.697-1.413,1.639-2.593,2.829-3.54
				c1.193-0.947,2.573-1.654,4.143-2.12c1.567-0.468,3.225-0.7,4.972-0.7c0.902,0,1.868,0.067,2.896,0.2
				c1.029,0.134,1.988,0.318,2.875,0.556c-0.089,0.946-0.144,1.846-0.167,2.697c-0.021,0.851-0.034,1.749-0.034,2.697l-0.931,0.088
				c-0.061-0.873-0.235-1.631-0.522-2.275c-0.289-0.645-0.674-1.176-1.155-1.599c-0.48-0.421-1.04-0.732-1.676-0.933
				c-0.637-0.199-1.332-0.299-2.086-0.299c-1.479,0-2.783,0.233-3.908,0.699c-1.126,0.467-2.07,1.117-2.831,1.954
				c-0.763,0.835-1.341,1.843-1.731,3.019C224.627,110.935,224.431,112.233,224.431,113.654z"/>
			<path fill="#FFFFFF" stroke="#FFFFFF" stroke-width="0.9465" stroke-miterlimit="10" d="M257.505,102.953
				c1.613,0,3.098,0.256,4.451,0.768c1.354,0.51,2.512,1.238,3.475,2.186s1.713,2.09,2.253,3.43s0.812,2.838,0.812,4.496
				c0,1.643-0.268,3.156-0.799,4.54c-0.535,1.384-1.281,2.579-2.242,3.585c-0.963,1.006-2.118,1.791-3.466,2.354
				c-1.347,0.563-2.84,0.843-4.483,0.843c-1.613,0-3.093-0.255-4.439-0.766c-1.348-0.511-2.505-1.239-3.475-2.188
				c-0.97-0.946-1.724-2.089-2.264-3.429c-0.542-1.34-0.811-2.838-0.811-4.496c0-1.643,0.266-3.156,0.799-4.539
				c0.533-1.384,1.282-2.58,2.243-3.586c0.96-1.006,2.116-1.791,3.462-2.354C254.368,103.235,255.863,102.953,257.505,102.953z
				 M257.373,104.152c-1.021,0-2.003,0.167-2.942,0.499c-0.939,0.333-1.767,0.87-2.487,1.61c-0.717,0.739-1.291,1.697-1.721,2.875
				c-0.428,1.176-0.644,2.608-0.644,4.295c0,1.984,0.245,3.648,0.733,4.996c0.49,1.346,1.118,2.43,1.888,3.251
				c0.769,0.821,1.631,1.407,2.587,1.755c0.953,0.348,1.904,0.521,2.852,0.521c1.021,0,2.002-0.166,2.941-0.5
				c0.939-0.333,1.77-0.869,2.486-1.609c0.72-0.74,1.292-1.698,1.722-2.875c0.429-1.176,0.644-2.609,0.644-4.296
				c0-1.983-0.244-3.647-0.732-4.995c-0.488-1.346-1.118-2.43-1.887-3.252c-0.77-0.82-1.633-1.405-2.586-1.754
				C259.27,104.327,258.32,104.152,257.373,104.152z"/>
			<path fill="#FFFFFF" stroke="#FFFFFF" stroke-width="0.9465" stroke-miterlimit="10" d="M292.246,125.021
				c-0.387-0.548-0.77-1.077-1.154-1.587c-0.385-0.512-0.792-1.025-1.222-1.543l-11.876-14.098l-0.09,0.045v12.987
				c0,0.694,0.041,1.239,0.121,1.631c0.082,0.392,0.234,0.688,0.457,0.889c0.221,0.2,0.522,0.333,0.898,0.399
				c0.378,0.066,0.87,0.122,1.477,0.166l-0.043,0.799c-0.477,0-1.034-0.007-1.678-0.021s-1.32-0.022-2.032-0.022
				c-0.562,0-1.149,0.008-1.763,0.022c-0.615,0.015-1.181,0.021-1.699,0.021l-0.068-0.754c0.592-0.06,1.08-0.13,1.468-0.211
				c0.385-0.081,0.69-0.248,0.921-0.5c0.229-0.25,0.388-0.629,0.477-1.132c0.09-0.504,0.134-1.199,0.134-2.087v-11.122
				c0-0.621-0.009-1.125-0.021-1.51c-0.017-0.386-0.048-0.699-0.1-0.943c-0.054-0.244-0.123-0.447-0.212-0.611
				c-0.088-0.162-0.207-0.333-0.355-0.51c-0.147-0.192-0.295-0.354-0.443-0.489c-0.148-0.133-0.319-0.244-0.512-0.332
				c-0.193-0.089-0.43-0.156-0.711-0.2c-0.28-0.045-0.628-0.081-1.043-0.111l0.044-0.799c0.179,0,0.44,0.003,0.788,0.012
				c0.348,0.007,0.736,0.011,1.166,0.011s0.873,0.004,1.334,0.011c0.455,0.008,0.887,0.011,1.287,0.011l14.207,16.762l0.066-0.045
				v-12.854c0-0.695-0.041-1.239-0.123-1.632c-0.08-0.392-0.232-0.688-0.455-0.888c-0.223-0.2-0.523-0.333-0.908-0.4
				c-0.386-0.065-0.881-0.122-1.489-0.166l0.046-0.799c0.473,0,1.035,0.007,1.688,0.021c0.65,0.015,1.33,0.023,2.041,0.023
				c0.281,0,0.579-0.004,0.888-0.012c0.312-0.008,0.618-0.015,0.921-0.022c0.305-0.007,0.592-0.015,0.867-0.021
				c0.274-0.009,0.516-0.012,0.722-0.012l0.021,0.755c-0.575,0.059-1.052,0.134-1.421,0.223c-0.369,0.088-0.663,0.259-0.877,0.51
				c-0.216,0.252-0.365,0.629-0.455,1.133c-0.087,0.503-0.133,1.198-0.133,2.086v16.695L292.246,125.021z"/>
			<path fill="#FFFFFF" stroke="#FFFFFF" stroke-width="0.9465" stroke-miterlimit="10" d="M301.657,118.516
				c0.296,0.77,0.61,1.48,0.943,2.131c0.331,0.652,0.732,1.218,1.198,1.699c0.467,0.48,1.01,0.858,1.633,1.132
				c0.62,0.274,1.367,0.41,2.24,0.41c0.578,0,1.111-0.096,1.6-0.288s0.916-0.466,1.287-0.822c0.371-0.354,0.659-0.772,0.866-1.254
				c0.205-0.48,0.31-1.01,0.31-1.587c0-0.726-0.133-1.347-0.4-1.864c-0.266-0.519-0.621-0.966-1.064-1.343
				c-0.443-0.378-0.947-0.708-1.51-0.989c-0.562-0.28-1.139-0.555-1.73-0.821c-0.668-0.296-1.336-0.621-2.01-0.976
				c-0.674-0.355-1.276-0.777-1.81-1.266c-0.532-0.488-0.97-1.051-1.309-1.688c-0.343-0.637-0.511-1.392-0.511-2.264
				c0-0.934,0.188-1.758,0.566-2.477c0.378-0.718,0.888-1.32,1.531-1.809c0.644-0.49,1.391-0.858,2.242-1.111
				c0.851-0.251,1.756-0.377,2.719-0.377c0.933,0,1.795,0.07,2.587,0.212c0.792,0.14,1.638,0.329,2.54,0.565
				c-0.043,0.475-0.08,0.914-0.11,1.321s-0.048,0.807-0.056,1.198c-0.007,0.393-0.014,0.792-0.021,1.199
				c-0.008,0.408-0.01,0.848-0.01,1.321l-0.935,0.089c-0.132-1.568-0.61-2.742-1.432-3.52c-0.819-0.776-1.927-1.165-3.317-1.165
				c-0.535,0-1.023,0.081-1.465,0.244c-0.446,0.163-0.83,0.399-1.156,0.71c-0.326,0.312-0.58,0.682-0.766,1.11
				s-0.277,0.909-0.277,1.442c0,0.711,0.115,1.307,0.345,1.787c0.228,0.482,0.544,0.9,0.942,1.256c0.4,0.354,0.863,0.661,1.388,0.92
				c0.526,0.259,1.077,0.515,1.654,0.766c0.71,0.311,1.425,0.652,2.143,1.021c0.718,0.371,1.362,0.807,1.933,1.311
				c0.566,0.503,1.03,1.087,1.387,1.754c0.355,0.666,0.531,1.449,0.531,2.353c0,1.007-0.207,1.897-0.622,2.675
				c-0.411,0.777-0.961,1.437-1.642,1.977c-0.68,0.54-1.464,0.95-2.352,1.232c-0.89,0.281-1.799,0.421-2.732,0.421
				c-0.814,0-1.656-0.081-2.53-0.244s-1.798-0.384-2.775-0.666c-0.104-0.977-0.228-1.896-0.378-2.753
				c-0.146-0.857-0.348-1.775-0.6-2.752L301.657,118.516z"/>
			<path fill="#FFFFFF" stroke="#FFFFFF" stroke-width="0.9465" stroke-miterlimit="10" d="M327.671,103.441
				c0.503,0,1.146-0.003,1.933-0.011c0.784-0.007,1.575-0.011,2.374-0.011c0.814,0,1.656-0.004,2.531-0.011
				c0.874-0.009,1.755-0.012,2.643-0.012c-0.045,0.519-0.086,0.995-0.123,1.432c-0.035,0.438-0.066,0.866-0.088,1.288
				c-0.022,0.422-0.039,0.848-0.046,1.276c-0.005,0.429-0.009,0.896-0.009,1.398l-0.846,0.044c-0.133-0.799-0.277-1.473-0.433-2.02
				c-0.155-0.548-0.382-0.994-0.677-1.343c-0.297-0.348-0.695-0.596-1.198-0.743c-0.503-0.148-1.169-0.223-1.999-0.223h-2.529
				v17.427c0,0.356,0.029,0.651,0.09,0.888c0.057,0.237,0.191,0.434,0.398,0.588c0.205,0.156,0.521,0.271,0.943,0.345
				c0.42,0.075,0.994,0.126,1.721,0.155l-0.045,0.799c-0.313,0-0.663-0.003-1.054-0.01c-0.394-0.008-0.797-0.012-1.21-0.012
				c-0.416,0-0.826-0.004-1.234-0.012c-0.404-0.008-0.785-0.011-1.143-0.011c-0.296,0-0.617,0.003-0.965,0.011
				s-0.698,0.012-1.055,0.012c-0.355,0-0.711,0.004-1.066,0.012c-0.354,0.007-0.674,0.01-0.953,0.01l-0.068-0.754
				c0.682-0.045,1.23-0.111,1.645-0.2c0.413-0.089,0.723-0.236,0.932-0.444c0.207-0.207,0.344-0.484,0.41-0.832
				c0.068-0.347,0.102-0.803,0.102-1.365v-16.605h-2.465c-0.83,0-1.498,0.074-2.01,0.223c-0.51,0.147-0.922,0.396-1.232,0.743
				c-0.312,0.349-0.547,0.795-0.711,1.343c-0.162,0.547-0.311,1.221-0.443,2.02l-0.844-0.044v-1.398c0-0.666-0.01-1.302-0.033-1.909
				c-0.021-0.606-0.07-1.303-0.145-2.087c0.888,0,1.762,0.003,2.62,0.012c0.858,0.007,1.687,0.011,2.487,0.011
				c0.799,0,1.501,0.004,2.109,0.011C326.591,103.438,327.153,103.441,327.671,103.441z"/>
			<path fill="#FFFFFF" stroke="#FFFFFF" stroke-width="0.9465" stroke-miterlimit="10" d="M347.093,121.891
				c0,0.354,0.016,0.654,0.045,0.898c0.031,0.244,0.134,0.447,0.313,0.61c0.176,0.163,0.454,0.285,0.832,0.366
				c0.378,0.082,0.913,0.13,1.608,0.145v0.799c-0.71,0-1.435-0.007-2.175-0.021s-1.466-0.022-2.177-0.022
				c-0.28,0-0.592,0.003-0.933,0.011c-0.338,0.008-0.681,0.012-1.02,0.012c-0.326,0-0.637,0.004-0.933,0.012
				c-0.296,0.007-0.549,0.01-0.754,0.01l-0.046-0.754c0.577-0.045,1.041-0.115,1.389-0.211s0.617-0.244,0.809-0.443
				c0.193-0.2,0.323-0.475,0.389-0.822c0.068-0.347,0.102-0.803,0.102-1.365v-14.94c0-0.355-0.029-0.651-0.09-0.889
				c-0.06-0.235-0.181-0.433-0.367-0.588c-0.185-0.155-0.461-0.271-0.833-0.345c-0.369-0.073-0.864-0.125-1.485-0.155l0.043-0.799
				c0.236,0,0.516,0.003,0.832,0.012c0.319,0.007,0.662,0.011,1.034,0.011c0.369,0,0.747,0.004,1.132,0.011
				c0.384,0.008,0.754,0.011,1.109,0.011c0.592,0,1.188-0.041,1.788-0.121c0.599-0.082,1.208-0.123,1.831-0.123
				c0.887,0,1.775,0.074,2.663,0.223s1.69,0.414,2.41,0.799c0.716,0.386,1.3,0.907,1.741,1.564c0.445,0.66,0.665,1.5,0.665,2.52
				c0,0.683-0.106,1.326-0.321,1.932c-0.215,0.607-0.515,1.159-0.898,1.654c-0.385,0.496-0.839,0.934-1.365,1.311
				c-0.525,0.377-1.107,0.684-1.743,0.92c0.474,0.903,0.939,1.77,1.399,2.599c0.458,0.829,0.885,1.587,1.276,2.275
				s0.747,1.292,1.065,1.809c0.318,0.519,0.582,0.927,0.789,1.222c0.281,0.385,0.523,0.691,0.732,0.921
				c0.207,0.229,0.434,0.407,0.678,0.533s0.527,0.218,0.854,0.277s0.746,0.111,1.266,0.155l-0.045,0.799
				c-0.443,0-1.025-0.007-1.743-0.021c-0.717-0.015-1.408-0.022-2.075-0.022c-0.207,0-0.434,0.003-0.678,0.011
				s-0.469,0.02-0.676,0.033c-0.148-0.311-0.377-0.766-0.689-1.364c-0.311-0.6-0.681-1.295-1.11-2.087
				c-0.429-0.792-0.902-1.654-1.419-2.588c-0.52-0.931-1.059-1.879-1.623-2.841c-0.087-0.147-0.172-0.28-0.252-0.399
				c-0.082-0.117-0.186-0.219-0.313-0.299c-0.125-0.082-0.293-0.145-0.499-0.189c-0.207-0.044-0.481-0.066-0.821-0.066h-0.668
				c-0.117,0-0.262-0.004-0.431-0.012c-0.171-0.007-0.374-0.018-0.612-0.033V121.891z M347.093,113.766
				c0.118,0.014,0.238,0.025,0.357,0.032c0.117,0.008,0.234,0.011,0.353,0.011h0.712c1.746,0,3.096-0.398,4.052-1.197
				c0.954-0.8,1.431-2.095,1.431-3.885c0-1.511-0.454-2.613-1.365-3.309c-0.908-0.695-2.119-1.043-3.629-1.043
				c-0.459,0-0.818,0.041-1.077,0.121c-0.259,0.082-0.447,0.203-0.565,0.367c-0.119,0.162-0.191,0.362-0.223,0.599
				c-0.029,0.237-0.045,0.503-0.045,0.8V113.766z"/>
			<path fill="#FFFFFF" stroke="#FFFFFF" stroke-width="0.9465" stroke-miterlimit="10" d="M369.781,117.406
				c0,1.064,0.176,1.979,0.533,2.741c0.354,0.763,0.822,1.384,1.408,1.864c0.584,0.482,1.246,0.836,1.987,1.065
				c0.739,0.229,1.501,0.345,2.287,0.345c0.799,0,1.56-0.121,2.285-0.365c0.726-0.245,1.369-0.637,1.931-1.178
				c0.563-0.541,1.011-1.236,1.344-2.087c0.334-0.852,0.5-1.876,0.5-3.074v-9.324c0-0.651-0.047-1.177-0.145-1.576
				c-0.096-0.399-0.275-0.71-0.533-0.933c-0.258-0.222-0.617-0.377-1.076-0.466s-1.051-0.156-1.775-0.2l0.044-0.799
				c0.519,0,1.145,0.007,1.877,0.021c0.731,0.015,1.497,0.023,2.296,0.023c0.65,0,1.334-0.012,2.043-0.034
				c0.71-0.021,1.302-0.033,1.775-0.033l0.023,0.755c-0.652,0.059-1.182,0.131-1.586,0.211c-0.408,0.082-0.734,0.241-0.979,0.477
				c-0.244,0.238-0.41,0.586-0.5,1.045c-0.087,0.459-0.133,1.087-0.133,1.887v9.391c0,1.451-0.244,2.679-0.731,3.684
				c-0.489,1.008-1.13,1.832-1.922,2.477c-0.792,0.643-1.688,1.109-2.685,1.398c-1,0.288-2.018,0.433-3.054,0.433
				c-1.021,0-1.999-0.14-2.929-0.421c-0.935-0.282-1.76-0.711-2.477-1.289c-0.719-0.576-1.293-1.301-1.723-2.174
				c-0.43-0.874-0.643-1.902-0.643-3.086v-11.855c0-0.355-0.032-0.658-0.1-0.91c-0.066-0.252-0.207-0.463-0.422-0.633
				c-0.213-0.17-0.521-0.299-0.921-0.39c-0.399-0.088-0.933-0.147-1.599-0.177l0.046-0.799c0.266,0,0.579,0.004,0.942,0.011
				c0.362,0.008,0.744,0.011,1.143,0.011c0.414,0,0.833,0.004,1.256,0.012c0.42,0.008,0.816,0.012,1.186,0.012
				c0.297,0,0.625-0.004,0.989-0.012c0.362-0.008,0.729-0.012,1.099-0.012c0.368,0,0.721-0.003,1.055-0.011
				c0.332-0.007,0.626-0.011,0.875-0.011l0.068,0.755c-0.637,0.044-1.154,0.118-1.553,0.221c-0.401,0.105-0.711,0.268-0.935,0.489
				c-0.223,0.223-0.372,0.515-0.454,0.877c-0.082,0.363-0.121,0.818-0.121,1.366V117.406z"/>
			<path fill="#FFFFFF" stroke="#FFFFFF" stroke-width="0.9465" stroke-miterlimit="10" d="M394.042,113.654
				c0,1.42,0.177,2.756,0.531,4.008c0.357,1.25,0.892,2.338,1.609,3.262c0.719,0.926,1.617,1.658,2.697,2.198
				c1.08,0.541,2.355,0.812,3.818,0.812c0.801,0,1.566-0.111,2.299-0.334c0.732-0.222,1.379-0.584,1.943-1.088
				c0.531-0.474,0.994-1.054,1.387-1.742c0.393-0.689,0.779-1.499,1.166-2.432l0.887,0.223c-0.251,0.977-0.451,1.895-0.6,2.752
				c-0.146,0.859-0.273,1.776-0.377,2.754c-1.17,0.34-2.326,0.606-3.475,0.799c-1.146,0.191-2.297,0.288-3.451,0.288
				c-1.672,0-3.216-0.259-4.629-0.776c-1.414-0.519-2.635-1.25-3.664-2.198c-1.027-0.947-1.83-2.091-2.408-3.43
				c-0.578-1.34-0.865-2.831-0.865-4.474c0-1.895,0.347-3.549,1.043-4.962c0.695-1.413,1.639-2.593,2.83-3.54
				c1.192-0.947,2.572-1.654,4.141-2.12c1.568-0.468,3.227-0.7,4.974-0.7c0.902,0,1.866,0.067,2.897,0.2
				c1.028,0.134,1.987,0.318,2.875,0.556c-0.089,0.946-0.145,1.846-0.168,2.697c-0.021,0.851-0.033,1.749-0.033,2.697l-0.931,0.088
				c-0.061-0.873-0.235-1.631-0.522-2.275c-0.289-0.645-0.674-1.176-1.155-1.599c-0.479-0.421-1.041-0.732-1.676-0.933
				c-0.636-0.199-1.331-0.299-2.085-0.299c-1.482,0-2.783,0.233-3.908,0.699c-1.127,0.467-2.07,1.117-2.831,1.954
				c-0.763,0.835-1.341,1.843-1.731,3.019C394.239,110.935,394.042,112.233,394.042,113.654z"/>
			<path fill="#FFFFFF" stroke="#FFFFFF" stroke-width="0.9465" stroke-miterlimit="10" d="M424.121,103.441
				c0.502,0,1.147-0.003,1.93-0.011c0.785-0.007,1.578-0.011,2.377-0.011c0.813,0,1.658-0.004,2.529-0.011
				c0.875-0.009,1.754-0.012,2.643-0.012c-0.043,0.519-0.086,0.995-0.121,1.432c-0.038,0.438-0.068,0.866-0.09,1.288
				s-0.037,0.848-0.043,1.276c-0.009,0.429-0.012,0.896-0.012,1.398l-0.846,0.044c-0.132-0.799-0.275-1.473-0.432-2.02
				c-0.154-0.548-0.379-0.994-0.676-1.343c-0.297-0.348-0.698-0.596-1.199-0.743c-0.502-0.148-1.17-0.223-1.998-0.223h-2.531v17.427
				c0,0.356,0.029,0.651,0.089,0.888c0.059,0.237,0.192,0.434,0.399,0.588c0.207,0.156,0.521,0.271,0.943,0.345
				c0.422,0.075,0.996,0.126,1.72,0.155l-0.043,0.799c-0.312,0-0.663-0.003-1.056-0.01c-0.391-0.008-0.795-0.012-1.208-0.012
				c-0.415,0-0.825-0.004-1.231-0.012c-0.408-0.008-0.791-0.011-1.145-0.011c-0.297,0-0.619,0.003-0.967,0.011
				s-0.699,0.012-1.054,0.012c-0.356,0-0.711,0.004-1.065,0.012c-0.355,0.007-0.674,0.01-0.956,0.01l-0.063-0.754
				c0.679-0.045,1.227-0.111,1.641-0.2s0.727-0.236,0.934-0.444c0.206-0.207,0.344-0.484,0.41-0.832
				c0.065-0.347,0.1-0.803,0.1-1.365v-16.605h-2.465c-0.828,0-1.498,0.074-2.008,0.223c-0.512,0.147-0.922,0.396-1.232,0.743
				c-0.313,0.349-0.549,0.795-0.711,1.343c-0.164,0.547-0.311,1.221-0.444,2.02l-0.843-0.044v-1.398
				c0-0.666-0.013-1.302-0.034-1.909c-0.021-0.606-0.069-1.303-0.143-2.087c0.888,0,1.759,0.003,2.616,0.012
				c0.859,0.007,1.689,0.011,2.487,0.011c0.799,0,1.503,0.004,2.11,0.011C423.041,103.438,423.601,103.441,424.121,103.441z"/>
			<path fill="#FFFFFF" stroke="#FFFFFF" stroke-width="0.9465" stroke-miterlimit="10" d="M449.335,102.953
				c1.614,0,3.1,0.256,4.452,0.768c1.353,0.51,2.512,1.238,3.474,2.186c0.963,0.947,1.714,2.09,2.254,3.43
				c0.541,1.34,0.811,2.838,0.811,4.496c0,1.643-0.267,3.156-0.798,4.54c-0.534,1.384-1.282,2.579-2.243,3.585
				c-0.963,1.006-2.117,1.791-3.465,2.354c-1.346,0.563-2.84,0.843-4.484,0.843c-1.613,0-3.092-0.255-4.438-0.766
				c-1.348-0.511-2.506-1.239-3.475-2.188c-0.971-0.946-1.725-2.089-2.265-3.429c-0.542-1.34-0.812-2.838-0.812-4.496
				c0-1.643,0.266-3.156,0.799-4.539c0.533-1.384,1.282-2.58,2.243-3.586c0.96-1.006,2.116-1.791,3.462-2.354
				C446.199,103.235,447.695,102.953,449.335,102.953z M449.205,104.152c-1.021,0-2.004,0.167-2.943,0.499
				c-0.939,0.333-1.768,0.87-2.486,1.61c-0.717,0.739-1.291,1.697-1.721,2.875c-0.428,1.176-0.645,2.608-0.645,4.295
				c0,1.984,0.245,3.648,0.733,4.996c0.49,1.346,1.118,2.43,1.888,3.251c0.769,0.821,1.631,1.407,2.587,1.755
				c0.954,0.348,1.903,0.521,2.853,0.521c1.021,0,2.002-0.166,2.941-0.5c0.939-0.333,1.768-0.869,2.484-1.609
				c0.721-0.74,1.293-1.698,1.723-2.875c0.43-1.176,0.643-2.609,0.643-4.296c0-1.983-0.244-3.647-0.732-4.995
				c-0.488-1.346-1.117-2.43-1.886-3.252c-0.771-0.82-1.633-1.405-2.587-1.754C451.101,104.327,450.151,104.152,449.205,104.152z"/>
			<path fill="#FFFFFF" stroke="#FFFFFF" stroke-width="0.9465" stroke-miterlimit="10" d="M471.179,121.891
				c0,0.354,0.015,0.654,0.045,0.898c0.028,0.244,0.132,0.447,0.311,0.61c0.178,0.163,0.456,0.285,0.832,0.366
				c0.378,0.082,0.914,0.13,1.609,0.145v0.799c-0.711,0-1.437-0.007-2.174-0.021c-0.742-0.015-1.468-0.022-2.176-0.022
				c-0.283,0-0.594,0.003-0.934,0.011c-0.341,0.008-0.68,0.012-1.021,0.012c-0.326,0-0.637,0.004-0.933,0.012
				c-0.296,0.007-0.548,0.01-0.754,0.01l-0.045-0.754c0.577-0.045,1.04-0.115,1.388-0.211s0.618-0.244,0.811-0.443
				c0.192-0.2,0.32-0.475,0.387-0.822c0.068-0.347,0.102-0.803,0.102-1.365v-14.94c0-0.355-0.03-0.651-0.089-0.889
				c-0.061-0.235-0.183-0.433-0.366-0.588c-0.185-0.155-0.463-0.271-0.832-0.345c-0.371-0.073-0.866-0.125-1.488-0.155l0.045-0.799
				c0.234,0,0.514,0.003,0.832,0.012c0.317,0.007,0.663,0.011,1.032,0.011s0.747,0.004,1.132,0.011
				c0.385,0.008,0.756,0.011,1.111,0.011c0.592,0,1.188-0.041,1.785-0.121c0.602-0.082,1.211-0.123,1.832-0.123
				c0.889,0,1.777,0.074,2.664,0.223c0.889,0.148,1.691,0.414,2.408,0.799c0.719,0.386,1.301,0.907,1.744,1.564
				c0.443,0.66,0.666,1.5,0.666,2.52c0,0.683-0.106,1.326-0.322,1.932c-0.215,0.607-0.514,1.159-0.898,1.654
				c-0.387,0.496-0.842,0.934-1.365,1.311c-0.525,0.377-1.107,0.684-1.744,0.92c0.475,0.903,0.939,1.77,1.398,2.599
				s0.886,1.587,1.277,2.275c0.391,0.688,0.748,1.292,1.064,1.809c0.319,0.519,0.582,0.927,0.788,1.222
				c0.282,0.385,0.528,0.691,0.735,0.921c0.204,0.229,0.431,0.407,0.677,0.533c0.244,0.126,0.528,0.218,0.854,0.277
				c0.324,0.06,0.746,0.111,1.266,0.155l-0.045,0.799c-0.445,0-1.025-0.007-1.744-0.021c-0.718-0.015-1.408-0.022-2.074-0.022
				c-0.209,0-0.434,0.003-0.678,0.011s-0.471,0.02-0.678,0.033c-0.147-0.311-0.376-0.766-0.688-1.364
				c-0.311-0.6-0.68-1.295-1.109-2.087c-0.432-0.792-0.904-1.654-1.422-2.588c-0.518-0.931-1.058-1.879-1.621-2.841
				c-0.088-0.147-0.173-0.28-0.255-0.399c-0.082-0.117-0.185-0.219-0.312-0.299c-0.125-0.082-0.293-0.145-0.498-0.189
				c-0.207-0.044-0.48-0.066-0.821-0.066h-0.667c-0.117,0-0.262-0.004-0.434-0.012c-0.169-0.007-0.374-0.018-0.609-0.033V121.891z
				 M471.179,113.766c0.119,0.014,0.235,0.025,0.355,0.032c0.117,0.008,0.236,0.011,0.355,0.011h0.71
				c1.745,0,3.097-0.398,4.052-1.197c0.954-0.8,1.432-2.095,1.432-3.885c0-1.511-0.455-2.613-1.365-3.309
				c-0.911-0.695-2.119-1.043-3.629-1.043c-0.461,0-0.818,0.041-1.078,0.121c-0.258,0.082-0.447,0.203-0.566,0.367
				c-0.119,0.162-0.192,0.362-0.221,0.599c-0.03,0.237-0.045,0.503-0.045,0.8V113.766z"/>
			<path fill="#FFFFFF" stroke="#FFFFFF" stroke-width="0.9465" stroke-miterlimit="10" d="M501.279,116.828h-7.392l-1.712,4.374
				c-0.295,0.843-0.441,1.376-0.441,1.599c0,0.385,0.18,0.65,0.543,0.799c0.362,0.148,1.01,0.244,1.943,0.288l-0.067,0.8
				c-0.548,0-1.162-0.008-1.843-0.022c-0.68-0.015-1.354-0.022-2.021-0.022c-0.547,0-1.112,0.008-1.696,0.022
				c-0.587,0.015-1.152,0.022-1.699,0.022l-0.045-0.754c0.578-0.046,1.051-0.115,1.421-0.213c0.37-0.096,0.692-0.272,0.966-0.531
				c0.273-0.26,0.533-0.613,0.777-1.066c0.244-0.45,0.527-1.055,0.854-1.809l6.15-15.03c0.178-0.444,0.365-0.832,0.565-1.165
				s0.374-0.692,0.521-1.076l1.4-0.179c0.162,0.71,0.336,1.362,0.521,1.954s0.358,1.132,0.522,1.62l4.993,14.475
				c0.223,0.651,0.424,1.163,0.602,1.531c0.176,0.371,0.385,0.656,0.621,0.856c0.236,0.199,0.535,0.336,0.898,0.41
				c0.361,0.074,0.832,0.133,1.41,0.177l-0.066,0.8c-0.621,0-1.309-0.008-2.053-0.022c-0.748-0.015-1.5-0.022-2.254-0.022
				c-0.621,0-1.251,0.008-1.887,0.022c-0.637,0.015-1.267,0.022-1.887,0.022l-0.068-0.754c0.83-0.061,1.422-0.159,1.775-0.301
				c0.357-0.141,0.533-0.402,0.533-0.788c0-0.162-0.027-0.351-0.087-0.565c-0.061-0.215-0.134-0.456-0.223-0.723L501.279,116.828z
				 M494.397,115.541h6.46l-2.906-8.791h-0.066L494.397,115.541z"/>
		</g>
	</g>
	<g>
		<g>
			<g>
				<polygon fill="#FFFFFF" points="0,92.67 15.804,78.135 15.804,124.973 0,124.973 				"/>
			</g>
		</g>
		<g>
			<polygon fill="#FFFFFF" points="19.144,49.219 33.957,33.734 33.957,112.053 19.144,97.515 			"/>
		</g>
		<g>
			<polygon fill="#FFFFFF" points="19.144,101.553 33.957,115.281 33.957,124.973 19.144,124.973 			"/>
		</g>
		<g>
			<polygon fill="#FFFFFF" points="37.185,86.209 90.331,34.585 90.331,124.973 37.185,124.973 			"/>
		</g>
		<g>
			<polygon fill="#FFFFFF" points="37.185,0 53.334,16.057 53.334,68.058 37.185,82.979 			"/>
		</g>
		<g>
			<polygon fill="#FFFFFF" points="55.907,16.82 70.953,32.203 70.953,49.525 56.818,63.598 			"/>
		</g>
		<g>
			<polygon fill="#FFFFFF" points="74.179,32.179 74.183,46.182 90.331,30.55 90.331,16.82 			"/>
		</g>
		<g>
			<g>
				<g>
					<polygon fill="#FFFFFF" points="210.145,92.67 194.35,78.135 194.35,124.973 210.145,124.973 					"/>
				</g>
			</g>
			<g>
				<polygon fill="#FFFFFF" points="191.007,49.219 176.199,33.734 176.199,112.053 191.007,97.515 				"/>
			</g>
			<g>
				<polygon fill="#FFFFFF" points="191.007,101.553 176.199,115.281 176.199,124.973 191.007,124.973 				"/>
			</g>
			<g>
				<polygon fill="#FFFFFF" points="172.967,86.209 119.821,34.585 119.821,124.973 172.967,124.973 				"/>
			</g>
			<g>
				<polygon fill="#FFFFFF" points="172.967,0 156.817,16.057 156.817,68.058 172.967,82.979 				"/>
			</g>
			<g>
				<polygon fill="#FFFFFF" points="154.243,16.82 139.201,32.203 139.201,49.525 153.334,63.598 				"/>
			</g>
			<g>
				<polygon fill="#FFFFFF" points="135.973,32.179 135.969,46.182 119.821,30.55 119.821,16.82 				"/>
			</g>
		</g>
	</g>
</g>
</svg>
