<?xml version="1.0" encoding="utf-8"?>
<!-- Generator: Adobe Illustrator 16.0.0, SVG Export Plug-In . SVG Version: 6.00 Build 0)  -->
<!DOCTYPE svg PUBLIC "-//W3C//DTD SVG 1.1//EN" "http://www.w3.org/Graphics/SVG/1.1/DTD/svg11.dtd">
<svg version="1.1" id="Capa_1" xmlns="http://www.w3.org/2000/svg" xmlns:xlink="http://www.w3.org/1999/xlink" x="0px" y="0px"
	 width="558.5px" height="103.153px" viewBox="0 0 558.5 103.153" enable-background="new 0 0 558.5 103.153" xml:space="preserve">
<g>
	<g>
		<path fill="#2C3E50" d="M111.755,16.188c-2.754,0-4.903,1.129-6.445,3.385c-1.543,2.256-2.314,5.365-2.314,9.33
			c0,8.242,3.135,12.363,9.404,12.363c1.894,0,3.73-0.264,5.508-0.791c1.777-0.527,3.564-1.162,5.361-1.904v9.785
			c-3.574,1.582-7.617,2.373-12.129,2.373c-6.465,0-11.421-1.875-14.868-5.625c-3.447-3.75-5.171-9.17-5.171-16.26
			c0-4.434,0.835-8.33,2.505-11.689c1.67-3.358,4.072-5.941,7.207-7.748s6.821-2.711,11.06-2.711c4.629,0,9.053,1.007,13.271,3.018
			l-3.545,9.111c-1.582-0.742-3.164-1.366-4.746-1.875C115.271,16.442,113.571,16.188,111.755,16.188z"/>
		<path fill="#2C3E50" d="M169.296,28.669c0,7.207-1.768,12.686-5.303,16.436c-3.535,3.75-8.711,5.625-15.527,5.625
			c-6.719,0-11.87-1.885-15.454-5.654c-3.584-3.77-5.376-9.258-5.376-16.465c0-7.129,1.782-12.572,5.347-16.332
			c3.564-3.76,8.745-5.641,15.542-5.641c6.816,0,11.982,1.865,15.498,5.596C167.539,15.965,169.296,21.442,169.296,28.669z
			 M139.824,28.669c0,8.281,2.881,12.422,8.643,12.422c2.93,0,5.102-1.006,6.519-3.018c1.416-2.012,2.124-5.146,2.124-9.404
			c0-4.277-0.718-7.436-2.153-9.477s-3.579-3.063-6.431-3.063C142.724,16.13,139.824,20.31,139.824,28.669z"/>
		<path fill="#2C3E50" d="M215.412,50.144h-15.176l-15.645-30.176h-0.264c0.371,4.746,0.557,8.369,0.557,10.869v19.307h-10.254
			V7.312h15.117l15.586,29.766h0.176c-0.274-4.316-0.41-7.783-0.41-10.4V7.312h10.313V50.144z"/>
		<path fill="#2C3E50" d="M250.277,37.136c0,2.656-0.674,5.016-2.021,7.076s-3.292,3.662-5.83,4.805
			c-2.539,1.143-5.518,1.713-8.936,1.713c-2.852,0-5.244-0.199-7.178-0.6s-3.945-1.1-6.035-2.096V37.722
			c2.207,1.133,4.501,2.018,6.885,2.652c2.383,0.635,4.57,0.951,6.563,0.951c1.718,0,2.978-0.297,3.779-0.893
			c0.801-0.596,1.201-1.363,1.201-2.301c0-0.586-0.161-1.098-0.483-1.537s-0.84-0.885-1.553-1.334
			c-0.713-0.449-2.612-1.367-5.698-2.754c-2.793-1.27-4.888-2.5-6.284-3.691c-1.396-1.191-2.432-2.559-3.105-4.102
			s-1.011-3.369-1.011-5.479c0-3.944,1.436-7.021,4.307-9.229c2.871-2.207,6.816-3.311,11.836-3.311
			c4.434,0,8.955,1.025,13.564,3.076l-3.545,8.936c-4.004-1.835-7.461-2.754-10.371-2.754c-1.504,0-2.598,0.264-3.281,0.791
			c-0.684,0.527-1.025,1.183-1.025,1.963c0,0.84,0.435,1.593,1.304,2.256c0.869,0.664,3.227,1.875,7.075,3.633
			c3.691,1.66,6.255,3.443,7.69,5.348S250.277,34.245,250.277,37.136z"/>
		<path fill="#2C3E50" d="M273.395,50.144h-11.572V16.774h-10.459V7.312h32.46v9.463h-10.429V50.144z"/>
		<path fill="#2C3E50" d="M299.12,34.558v15.586h-11.572V7.312h14.033c11.641,0,17.461,4.219,17.461,12.656
			c0,4.961-2.422,8.799-7.266,11.514l12.48,18.662h-13.125l-9.082-15.586H299.12z M299.12,25.856h2.168
			c4.043,0,6.064-1.787,6.064-5.361c0-2.948-1.982-4.424-5.947-4.424h-2.285V25.856z"/>
		<path fill="#2C3E50" d="M362.17,7.312v25.781c0,5.605-1.588,9.947-4.762,13.023s-7.748,4.613-13.725,4.613
			c-5.841,0-10.328-1.494-13.463-4.482s-4.701-7.285-4.701-12.891V7.312h11.631v25.137c0,3.027,0.566,5.225,1.699,6.592
			c1.132,1.367,2.802,2.051,5.01,2.051c2.362,0,4.076-0.678,5.141-2.035s1.598-3.58,1.598-6.666V7.312H362.17z"/>
		<path fill="#2C3E50" d="M387.836,16.188c-2.754,0-4.902,1.129-6.445,3.385s-2.314,5.365-2.314,9.33
			c0,8.242,3.135,12.363,9.404,12.363c1.895,0,3.73-0.264,5.508-0.791s3.564-1.162,5.361-1.904v9.785
			c-3.574,1.582-7.617,2.373-12.129,2.373c-6.465,0-11.422-1.875-14.868-5.625c-3.447-3.75-5.171-9.17-5.171-16.26
			c0-4.434,0.835-8.33,2.505-11.689c1.67-3.358,4.072-5.941,7.207-7.748s6.821-2.711,11.06-2.711c4.629,0,9.053,1.007,13.271,3.018
			l-3.545,9.111c-1.582-0.742-3.164-1.366-4.746-1.875C391.352,16.442,389.652,16.188,387.836,16.188z"/>
		<path fill="#2C3E50" d="M424.195,50.144h-11.572V16.774h-10.459V7.312h32.461v9.463h-10.43V50.144z"/>
		<path fill="#2C3E50" d="M474.764,7.312v25.781c0,5.605-1.586,9.947-4.76,13.023c-3.175,3.076-7.75,4.613-13.727,4.613
			c-5.84,0-10.326-1.494-13.461-4.482s-4.703-7.285-4.703-12.891V7.312h11.631v25.137c0,3.027,0.566,5.225,1.699,6.592
			s2.803,2.051,5.01,2.051c2.363,0,4.077-0.678,5.143-2.035c1.064-1.357,1.596-3.58,1.596-6.666V7.312H474.764z"/>
		<path fill="#2C3E50" d="M492.931,34.558v15.586h-11.572V7.312h14.033c11.641,0,17.461,4.219,17.461,12.656
			c0,4.961-2.422,8.799-7.266,11.514l12.48,18.662h-13.125l-9.082-15.586H492.931z M492.931,25.856h2.168
			c4.043,0,6.064-1.787,6.064-5.361c0-2.948-1.982-4.424-5.947-4.424h-2.285V25.856z"/>
		<path fill="#2C3E50" d="M545.844,50.144l-2.109-8.027h-13.916l-2.168,8.027h-12.715L528.91,7.136h15.439l14.15,43.008H545.844z
			 M541.332,32.624l-1.846-7.031c-0.43-1.563-0.953-3.584-1.568-6.064c-0.615-2.479-1.021-4.258-1.215-5.332
			c-0.176,0.996-0.523,2.637-1.041,4.922s-1.665,6.787-3.441,13.506H541.332z"/>
	</g>
	<g>
		<path fill="#3498DB" d="M113.664,103.144h-3.018v-40.02H96.73v-2.813h30.85v2.813h-13.916V103.144z"/>
		<path fill="#3498DB" d="M154.563,88.026H137.16l-5.977,15.117h-3.311L145.1,60.136h1.904l16.875,43.008h-3.369L154.563,88.026z
			 M138.244,85.331h15.322l-5.83-15.439c-0.488-1.211-1.074-2.89-1.758-5.039c-0.527,1.875-1.104,3.574-1.729,5.098L138.244,85.331z
			"/>
		<path fill="#3498DB" d="M195.725,72.616c0,4.142-1.406,7.314-4.219,9.521c-2.813,2.208-6.797,3.311-11.953,3.311h-6.621v17.695
			h-2.988V60.312h10.488C190.627,60.312,195.725,64.413,195.725,72.616z M172.932,82.87h5.889c4.824,0,8.311-0.795,10.459-2.387
			s3.223-4.176,3.223-7.75c0-3.3-1.016-5.746-3.047-7.338s-5.176-2.389-9.434-2.389h-7.09V82.87z"/>
		<path fill="#3498DB" d="M205.041,103.144V60.312h2.988v42.832H205.041z"/>
		<path fill="#3498DB" d="M240.783,88.026h-17.402l-5.977,15.117h-3.311l17.227-43.008h1.904l16.875,43.008h-3.369L240.783,88.026z
			 M224.465,85.331h15.322l-5.83-15.439c-0.488-1.211-1.074-2.89-1.758-5.039c-0.527,1.875-1.104,3.574-1.729,5.098L224.465,85.331z
			"/>
	</g>
	<g>
		<polygon fill="#2C3E50" points="20,103.153 0,103.153 0,44.791 47.471,0 61.196,14.547 20,53.418 		"/>
	</g>
	<g>
		<polygon fill="#3498DB" points="45,103.153 25,103.153 25,54.971 64.079,18.097 77.805,32.644 45,63.598 		"/>
	</g>
	<g>
		<rect x="66" y="68.153" fill="#3498DB" width="10" height="35"/>
	</g>
</g>
</svg>
