<svg xmlns="http://www.w3.org/2000/svg" version="1.1" x="0" y="0" width="558.3" height="103.1" viewBox="0 0 558.3 103.1" enable-background="new 0 0 558.25 103.144" xml:space="preserve"><path fill="#2C3E50" d="M109.1 16.2c-2.8 0-4.9 1.1-6.4 3.4 -1.5 2.3-2.3 5.4-2.3 9.3 0 8.2 3.1 12.4 9.4 12.4 1.9 0 3.7-0.3 5.5-0.8 1.8-0.5 3.6-1.2 5.4-1.9v9.8c-3.6 1.6-7.6 2.4-12.1 2.4 -6.5 0-11.4-1.9-14.9-5.6 -3.4-3.7-5.2-9.2-5.2-16.3 0-4.4 0.8-8.3 2.5-11.7 1.7-3.4 4.1-5.9 7.2-7.7 3.1-1.8 6.8-2.7 11.1-2.7 4.6 0 9.1 1 13.3 3l-3.5 9.1c-1.6-0.7-3.2-1.4-4.7-1.9C112.6 16.4 110.9 16.2 109.1 16.2zM166.6 28.7c0 7.2-1.8 12.7-5.3 16.4 -3.5 3.8-8.7 5.6-15.5 5.6 -6.7 0-11.9-1.9-15.5-5.7 -3.6-3.8-5.4-9.3-5.4-16.5 0-7.1 1.8-12.6 5.3-16.3 3.6-3.8 8.7-5.6 15.5-5.6 6.8 0 12 1.9 15.5 5.6C164.9 16 166.6 21.4 166.6 28.7zM137.2 28.7c0 8.3 2.9 12.4 8.6 12.4 2.9 0 5.1-1 6.5-3 1.4-2 2.1-5.1 2.1-9.4 0-4.3-0.7-7.4-2.2-9.5 -1.4-2-3.6-3.1-6.4-3.1C140.1 16.1 137.2 20.3 137.2 28.7zM212.8 50.1h-15.2l-15.6-30.2h-0.3c0.4 4.7 0.6 8.4 0.6 10.9v19.3h-10.3V7.3h15.1l15.6 29.8h0.2c-0.3-4.3-0.4-7.8-0.4-10.4V7.3h10.3V50.1zM247.6 37.1c0 2.7-0.7 5-2 7.1s-3.3 3.7-5.8 4.8c-2.5 1.1-5.5 1.7-8.9 1.7 -2.9 0-5.2-0.2-7.2-0.6s-3.9-1.1-6-2.1V37.7c2.2 1.1 4.5 2 6.9 2.7 2.4 0.6 4.6 1 6.6 1 1.7 0 3-0.3 3.8-0.9 0.8-0.6 1.2-1.4 1.2-2.3 0-0.6-0.2-1.1-0.5-1.5s-0.8-0.9-1.6-1.3c-0.7-0.4-2.6-1.4-5.7-2.8 -2.8-1.3-4.9-2.5-6.3-3.7 -1.4-1.2-2.4-2.6-3.1-4.1s-1-3.4-1-5.5c0-3.9 1.4-7 4.3-9.2 2.9-2.2 6.8-3.3 11.8-3.3 4.4 0 9 1 13.6 3.1l-3.5 8.9c-4-1.8-7.5-2.8-10.4-2.8 -1.5 0-2.6 0.3-3.3 0.8 -0.7 0.5-1 1.2-1 2 0 0.8 0.4 1.6 1.3 2.3 0.9 0.7 3.2 1.9 7.1 3.6 3.7 1.7 6.3 3.4 7.7 5.3S247.6 34.2 247.6 37.1zM270.7 50.1H259.2V16.8h-10.5V7.3h32.5v9.5h-10.4V50.1zM296.5 34.6v15.6h-11.6V7.3h14c11.6 0 17.5 4.2 17.5 12.7 0 5-2.4 8.8-7.3 11.5l12.5 18.7h-13.1l-9.1-15.6H296.5zM296.5 25.9h2.2c4 0 6.1-1.8 6.1-5.4 0-2.9-2-4.4-5.9-4.4h-2.3V25.9zM359.5 7.3v25.8c0 5.6-1.6 9.9-4.8 13s-7.7 4.6-13.7 4.6c-5.8 0-10.3-1.5-13.5-4.5s-4.7-7.3-4.7-12.9V7.3h11.6v25.1c0 3 0.6 5.2 1.7 6.6 1.1 1.4 2.8 2.1 5 2.1 2.4 0 4.1-0.7 5.1-2s1.6-3.6 1.6-6.7V7.3H359.5zM385.2 16.2c-2.8 0-4.9 1.1-6.4 3.4s-2.3 5.4-2.3 9.3c0 8.2 3.1 12.4 9.4 12.4 1.9 0 3.7-0.3 5.5-0.8s3.6-1.2 5.4-1.9v9.8c-3.6 1.6-7.6 2.4-12.1 2.4 -6.5 0-11.4-1.9-14.9-5.6 -3.4-3.7-5.2-9.2-5.2-16.3 0-4.4 0.8-8.3 2.5-11.7 1.7-3.4 4.1-5.9 7.2-7.7 3.1-1.8 6.8-2.7 11.1-2.7 4.6 0 9.1 1 13.3 3l-3.5 9.1c-1.6-0.7-3.2-1.4-4.7-1.9C388.7 16.4 387 16.2 385.2 16.2zM421.5 50.1h-11.6V16.8h-10.5V7.3h32.5v9.5h-10.4V50.1zM475.8 28.7c0 7.2-1.8 12.7-5.3 16.4s-8.7 5.6-15.5 5.6c-6.7 0-11.9-1.9-15.5-5.7 -3.6-3.8-5.4-9.3-5.4-16.5 0-7.1 1.8-12.6 5.3-16.3 3.6-3.8 8.7-5.6 15.5-5.6 6.8 0 12 1.9 15.5 5.6C474 16 475.8 21.4 475.8 28.7zM446.3 28.7c0 8.3 2.9 12.4 8.6 12.4 2.9 0 5.1-1 6.5-3 1.4-2 2.1-5.1 2.1-9.4 0-4.3-0.7-7.4-2.2-9.5 -1.4-2-3.6-3.1-6.4-3.1C449.2 16.1 446.3 20.3 446.3 28.7zM492.7 34.6v15.6h-11.6V7.3h14c11.6 0 17.5 4.2 17.5 12.7 0 5-2.4 8.8-7.3 11.5l12.5 18.7h-13.1l-9.1-15.6H492.7zM492.7 25.9h2.2c4 0 6.1-1.8 6.1-5.4 0-2.9-2-4.4-5.9-4.4h-2.3V25.9zM545.6 50.1l-2.1-8h-13.9l-2.2 8h-12.7L528.7 7.1H544.1l14.2 43H545.6zM541.1 32.6l-1.8-7c-0.4-1.6-1-3.6-1.6-6.1 -0.6-2.5-1-4.3-1.2-5.3 -0.2 1-0.5 2.6-1 4.9s-1.7 6.8-3.4 13.5H541.1z"/><path fill="#3498DB" d="M113.4 103.1h-3v-40H96.5v-2.8h30.9v2.8h-13.9V103.1zM154.3 88H136.9l-6 15.1h-3.3l17.2-43h1.9l16.9 43h-3.4L154.3 88zM138 85.3h15.3l-5.8-15.4c-0.5-1.2-1.1-2.9-1.8-5 -0.5 1.9-1.1 3.6-1.7 5.1L138 85.3zM195.5 72.6c0 4.1-1.4 7.3-4.2 9.5 -2.8 2.2-6.8 3.3-12 3.3h-6.6v17.7h-3V60.3h10.5C190.4 60.3 195.5 64.4 195.5 72.6zM172.7 82.9h5.9c4.8 0 8.3-0.8 10.5-2.4 2.1-1.6 3.2-4.2 3.2-7.7 0-3.3-1-5.7-3-7.3 -2-1.6-5.2-2.4-9.4-2.4h-7.1V82.9zM204.8 103.1V60.3h3v42.8H204.8zM240.5 88h-17.4l-6 15.1h-3.3l17.2-43h1.9l16.9 43h-3.4L240.5 88zM224.2 85.3h15.3l-5.8-15.4c-0.5-1.2-1.1-2.9-1.8-5 -0.5 1.9-1.1 3.6-1.7 5.1L224.2 85.3z"/><polygon fill="#2C3E50" points="20 103.6 0 103.6 0 45.4 47.3 0.6 61.1 15.1 20 54 "/><polygon fill="#3498DB" points="45 103.6 25 103.6 25 55.5 64 18.7 77.7 33.2 45 64.2 "/><rect x="66" y="68.6" fill="#3498DB" width="10" height="35"/></svg>
