<svg xmlns="http://www.w3.org/2000/svg" version="1.1" x="0" y="0" viewBox="0 0 455 455" xml:space="preserve"><path d="M0 0v455h455V0H0zM352.8 163.3c0.1 2.8 0.2 5.6 0.2 8.4 0 85.4-65 183.9-183.9 183.9 -36.5 0-70.5-10.7-99.1-29 5.1 0.6 10.2 0.9 15.4 0.9 30.3 0 58.1-10.3 80.3-27.7 -28.3-0.5-52.1-19.2-60.4-44.9 3.9 0.8 8 1.2 12.2 1.2 5.9 0 11.6-0.8 17-2.3 -29.6-5.9-51.8-32.1-51.8-63.4 0-0.3 0-0.5 0-0.8 8.7 4.8 18.7 7.7 29.3 8.1 -17.3-11.6-28.7-31.4-28.7-53.8 0-11.8 3.2-22.9 8.8-32.5 31.9 39.1 79.5 64.8 133.2 67.5 -1.1-4.7-1.7-9.7-1.7-14.7 0-35.7 28.9-64.6 64.6-64.6 18.6 0 35.4 7.8 47.2 20.4 14.7-2.9 28.6-8.3 41-15.7 -4.8 15.1-15.1 27.8-28.4 35.8 13.1-1.6 25.5-5 37.1-10.2C376.3 142.8 365.4 154.1 352.8 163.3z" fill="rgb(255, 255, 255)"/></svg>
